<svg width="210" height="216" viewBox="0 0 210 216" fill="none" xmlns="http://www.w3.org/2000/svg">
<path d="M204.445 8.09244C204.309 8.09244 204.172 8.04694 204.058 7.95294C203.8 7.73944 203.765 7.35744 203.979 7.09994C204.28 6.69694 206.074 3.56144 206.877 1.93144C205.57 2.45444 203.186 3.55144 201.031 4.60194C200.734 4.74794 200.369 4.62544 200.222 4.32344C200.075 4.02244 200.199 3.65995 200.501 3.51344C207.867 -0.0785551 208.047 0.200943 208.367 0.717943C208.913 1.60094 204.956 7.81895 204.911 7.87345C204.792 8.01795 204.619 8.09244 204.445 8.09244Z" fill="#060606"/>
<path d="M195.802 10.2385C195.802 10.2385 193.98 1.04348 199.171 1.49498C206.361 2.12048 213.841 18.226 202.368 25.01C190.895 31.794 183.731 22.761 183.731 22.761L190.012 19.5615C190.012 19.5615 184.096 16.4695 183.622 12.841C183.147 9.21248 187.701 11.372 187.701 11.372C187.701 11.372 181.198 4.36148 184.763 3.21248C188.329 2.06348 195.802 10.2385 195.802 10.2385Z" fill="#FD5900"/>
<path d="M200.584 8.05398C199.368 8.05398 197.907 6.74097 197.448 6.29597C197.208 6.06347 197.202 5.67998 197.434 5.43948C197.666 5.20048 198.049 5.19348 198.29 5.42548C198.984 6.09498 199.969 6.76248 200.469 6.84048C200.34 6.34848 199.7 5.25098 198.977 4.31348C198.774 4.04848 198.823 3.66798 199.088 3.46398C199.352 3.25898 199.732 3.30797 199.938 3.57397C200.707 4.57347 201.954 6.39348 201.653 7.35948C201.559 7.66448 201.336 7.88748 201.029 7.98698C200.886 8.03298 200.737 8.05398 200.584 8.05398Z" fill="#060606"/>
<path d="M191.751 19.239C191.664 19.239 191.575 19.22 191.492 19.1805C191.058 18.9755 187.245 17.1075 186.903 14.878C186.79 14.14 187.136 13.7655 187.353 13.6075C187.99 13.142 189.15 13.3745 190.174 13.7345C189.198 11.614 189.084 10.306 189.832 9.83949C190.149 9.64199 191.113 9.03749 196.553 14.065C196.798 14.292 196.813 14.6755 196.586 14.921C196.36 15.1665 195.976 15.1825 195.729 14.9545C193.81 13.1805 191.414 11.2825 190.539 10.9605C190.569 11.5815 191.19 13.1775 191.997 14.6555C192.125 14.888 192.085 15.176 191.901 15.3665C191.719 15.558 191.432 15.6055 191.194 15.488C189.921 14.8515 188.439 14.4205 188.085 14.5765C188.09 14.589 188.09 14.629 188.099 14.694C188.285 15.902 190.597 17.4155 192.009 18.0855C192.312 18.2285 192.441 18.59 192.298 18.8925C192.195 19.111 191.977 19.239 191.751 19.239Z" fill="#060606"/>
<path d="M195.716 24.2405C195.668 24.2405 195.638 24.24 195.625 24.24C195.29 24.2325 195.025 23.956 195.032 23.622C195.039 23.287 195.34 23.0495 195.651 23.0285C195.679 23.0295 200.591 23.0865 203.482 19.943C205.208 18.068 205.906 15.411 205.56 12.0445C205.525 11.712 205.767 11.414 206.099 11.3795C206.426 11.3525 206.73 11.587 206.764 11.92C207.15 15.6505 206.343 18.628 204.367 20.77C201.29 24.107 196.466 24.2405 195.716 24.2405Z" fill="#060606"/>
<path d="M4.43523 118.643C4.25873 118.643 4.08523 118.565 3.96673 118.413C3.92423 118.358 0.177728 112.009 0.754728 111.146C1.09423 110.642 1.27523 110.363 8.52373 114.205C8.81923 114.361 8.93173 114.728 8.77473 115.024C8.61873 115.319 8.25323 115.432 7.95623 115.275C5.83723 114.151 3.49173 112.974 2.20323 112.408C2.94973 114.064 4.63773 117.26 4.93123 117.68C5.12073 117.95 5.06473 118.328 4.79973 118.523C4.68973 118.603 4.56223 118.643 4.43523 118.643Z" fill="#060606"/>
<path d="M12.9911 121.085C12.9911 121.085 15.1231 111.957 9.92011 112.233C2.71211 112.615 -5.30789 128.458 5.92861 135.626C17.1656 142.795 24.6306 134.009 24.6306 134.009L18.4621 130.599C18.4621 130.599 24.4786 127.709 25.0761 124.099C25.6736 120.489 21.0486 122.493 21.0486 122.493C21.0486 122.493 27.7856 115.707 24.2611 114.437C20.7371 113.168 12.9911 121.085 12.9911 121.085Z" fill="#FD5900"/>
<path d="M8.34455 118.741C8.17055 118.741 8.00255 118.715 7.84405 118.657C7.53905 118.548 7.32455 118.317 7.24055 118.009C6.97305 117.033 8.28055 115.256 9.08255 114.284C9.29655 114.026 9.67755 113.99 9.93555 114.203C10.1935 114.416 10.23 114.798 10.017 115.056C9.24904 115.986 8.58204 117.045 8.44004 117.531C8.94155 117.471 9.95055 116.837 10.6675 116.19C10.9145 115.965 11.298 115.985 11.523 116.234C11.7465 116.482 11.7275 116.865 11.479 117.089C11.013 117.511 9.54855 118.741 8.34455 118.741Z" fill="#060606"/>
<path d="M16.7547 130.218C16.5207 130.218 16.2982 130.082 16.1987 129.853C16.0662 129.546 16.2072 129.19 16.5132 129.057C17.9492 128.433 20.3132 126.997 20.5377 125.799C20.5577 125.693 20.5462 125.653 20.5462 125.652C20.2707 125.493 18.7372 125.881 17.4182 126.488C17.1757 126.598 16.8917 126.539 16.7157 126.343C16.5382 126.146 16.5087 125.857 16.6437 125.629C17.5002 124.178 18.1757 122.604 18.2252 121.985C17.3417 122.276 14.8822 124.093 12.9042 125.801C12.6512 126.018 12.2677 125.993 12.0502 125.739C11.8312 125.486 11.8587 125.103 12.1117 124.885C17.7097 120.05 18.6582 120.68 18.9707 120.888C19.7042 121.38 19.5447 122.684 18.4977 124.77C19.5327 124.446 20.7002 124.253 21.3217 124.738C21.5337 124.903 21.8672 125.29 21.7287 126.023C21.3122 128.24 17.4367 129.977 16.9967 130.168C16.9167 130.202 16.8347 130.218 16.7547 130.218Z" fill="#060606"/>
<path d="M12.7023 135.084C12.6998 135.084 12.6978 135.084 12.6953 135.084C12.4728 135.081 7.22378 134.978 4.07378 131.321C2.17128 129.113 1.46778 126.11 1.97878 122.395C2.02478 122.063 2.33728 121.833 2.66128 121.878C2.99228 121.924 3.22428 122.229 3.17828 122.561C2.71678 125.912 3.32478 128.592 4.98578 130.524C7.77278 133.767 12.6613 133.873 12.7108 133.873C13.0443 133.878 13.3118 134.152 13.3083 134.487C13.3033 134.818 13.0333 135.084 12.7023 135.084Z" fill="#060606"/>
<path d="M9.79985 20.2094H9.79635C9.46135 20.2069 9.19185 19.9349 9.19435 19.6004L9.25485 9.40639C9.25735 9.07289 9.52835 8.80438 9.86035 8.80438H9.86386C10.1989 8.80688 10.4684 9.07888 10.4659 9.41388L10.4054 19.6079C10.4034 19.9404 10.1324 20.2094 9.79985 20.2094Z" fill="#060606"/>
<path d="M5.69097 17.9839C5.50047 17.9839 5.31247 17.8938 5.19397 17.7248C5.00247 17.4503 5.06997 17.0728 5.34397 16.8813L13.762 11.0124C14.033 10.8229 14.4125 10.8868 14.6055 11.1623C14.797 11.4368 14.7295 11.8144 14.4555 12.0059L6.03747 17.8748C5.93197 17.9483 5.81147 17.9839 5.69097 17.9839Z" fill="#060606"/>
<path d="M13.0813 18.4124C12.9203 18.4124 12.7608 18.3484 12.6413 18.2229L6.2768 11.4974C6.0473 11.2549 6.05781 10.8704 6.30031 10.6409C6.54381 10.4104 6.92631 10.4234 7.15681 10.6644L13.5213 17.3899C13.7508 17.6324 13.7403 18.0169 13.4978 18.2464C13.3808 18.3579 13.2303 18.4124 13.0813 18.4124Z" fill="#060606"/>
<path d="M4.53913 15.0039C4.20663 15.0039 3.93713 14.7364 3.93363 14.4039C3.93013 14.0689 4.19863 13.7959 4.53363 13.7924L14.3381 13.6989H14.3416C14.6766 13.6989 14.9461 13.9664 14.9496 14.2989C14.9531 14.6339 14.6846 14.9069 14.3496 14.9104L4.54513 15.0039H4.53913Z" fill="#060606"/>
<path d="M202.762 212.675C202.314 212.675 201.889 212.675 200.709 207.975C196.727 207.208 196.378 206.74 196.261 206.584C196.147 206.432 196.099 206.155 196.151 205.974C196.223 205.718 196.39 205.127 200.941 203.292C202.576 199.031 203.129 199.031 203.498 199.031C203.69 199.031 203.953 199.168 204.067 199.322C204.359 199.715 204.624 200.735 205.025 202.368C205.152 202.879 205.303 203.496 205.391 203.767C205.63 203.874 206.156 204.062 206.593 204.219C208.934 205.059 209.537 205.344 209.647 205.903C209.687 206.113 209.581 206.418 209.422 206.561C208.948 206.986 206.686 207.827 205.499 208.249C203.572 212.634 203.16 212.655 202.796 212.674C202.786 212.675 202.773 212.675 202.762 212.675ZM197.801 206.061C198.597 206.29 200.048 206.62 201.314 206.856C201.547 206.9 201.734 207.076 201.791 207.306C202.115 208.618 202.538 210.114 202.842 210.966C203.284 210.172 203.952 208.766 204.495 207.523C204.562 207.369 204.69 207.249 204.848 207.194C205.93 206.813 207.152 206.346 207.912 206.013C207.38 205.788 206.654 205.528 206.183 205.359C204.848 204.881 204.596 204.777 204.425 204.547C204.275 204.344 204.181 204.008 203.849 202.657C203.723 202.149 203.532 201.369 203.361 200.786C202.965 201.543 202.41 202.831 201.978 203.97C201.918 204.129 201.794 204.255 201.636 204.318C200.232 204.879 198.637 205.594 197.801 206.061Z" fill="#060606"/>
<path d="M161.784 144.914C161.784 144.914 180.661 158.704 193.058 163.131C201.837 166.267 191.144 209.269 183.318 210.652C129.893 220.097 119.563 214.194 119.114 210.633C118.299 204.173 153.32 144.914 161.784 144.914Z" fill="white"/>
<path d="M96.586 122.463C96.586 122.463 146.646 198.423 148.244 197.924C149.841 197.424 166.351 182.432 167.948 182.432C169.546 182.432 116.291 111.969 114.693 110.47C113.096 108.971 94.9885 119.465 96.586 122.463Z" fill="#060606"/>
<path d="M80.7139 0C43.5824 0 13.4814 30.101 13.4814 67.2325C13.4814 104.364 43.5824 134.465 80.7139 134.465C117.845 134.465 147.946 104.364 147.946 67.2325C147.946 30.101 117.845 0 80.7139 0ZM80.7139 112.908C55.4879 112.908 35.0384 92.4585 35.0384 67.2325C35.0384 42.0065 55.4879 21.557 80.7139 21.557C105.94 21.557 126.389 42.0065 126.389 67.2325C126.389 92.4585 105.94 112.908 80.7139 112.908Z" fill="#FFA06E"/>
<path d="M106.28 146.602C106.28 146.602 136.045 136.086 139.043 148.964C141.485 159.456 103.487 166.359 107.393 162.452C111.3 158.546 141.25 148.779 148.488 158.114C154.72 166.151 115.207 174.823 112.602 176.125C109.998 177.427 152.308 159.92 158.819 169.035C165.33 178.15 122.368 193.054 122.368 193.054C122.368 193.054 156.876 174.172 160.132 183.938C163.387 193.705 131.515 215.689 119.113 213.238C101.557 209.767 109.526 200.027 109.526 200.027C109.526 200.027 102.738 202.978 99.4909 195.009C96.0169 186.482 106.87 182.908 106.87 182.908C106.87 182.908 95.8559 187.308 94.5534 178.844C93.2509 170.379 99.9989 169.21 99.9989 169.21C99.9989 169.21 92.4174 172.87 90.4644 162.452C88.5114 152.034 106.28 146.602 106.28 146.602Z" fill="white"/>
<path d="M167.294 197.611C167.294 197.611 134.088 187.193 131.484 172.869C128.879 158.545 141.25 148.779 141.25 148.779C141.25 148.779 126.601 136.733 126.926 124.037C127.001 121.126 138.646 124.688 155.575 139.013C172.503 153.337 180.968 172.219 179.014 181.985C177.061 191.751 167.294 197.611 167.294 197.611Z" fill="white"/>
<path d="M168.148 190.295C168.12 190.295 168.091 190.293 168.063 190.289C167.926 190.27 154.198 188.208 150.002 174.42C149.173 171.696 148.516 169.203 147.881 166.79C145.378 157.292 143.569 150.429 134.763 143.527C134.5 143.321 134.454 142.94 134.66 142.677C134.866 142.414 135.247 142.367 135.51 142.574C144.637 149.727 146.586 157.121 149.052 166.482C149.685 168.883 150.339 171.366 151.162 174.068C155.128 187.1 168.101 189.071 168.231 189.089C168.562 189.136 168.793 189.442 168.747 189.773C168.705 190.076 168.445 190.295 168.148 190.295Z" fill="#060606"/>
<path d="M106.575 167.574C106.327 167.574 106.094 167.42 106.005 167.172C105.893 166.858 106.056 166.511 106.371 166.398C106.65 166.298 134.281 156.352 138.841 149.798C139.031 149.524 139.411 149.457 139.683 149.646C139.959 149.837 140.026 150.216 139.835 150.49C135.057 157.359 107.933 167.126 106.781 167.538C106.712 167.563 106.643 167.574 106.575 167.574Z" fill="#060606"/>
<path d="M109.527 183.218C109.275 183.218 109.04 183.06 108.955 182.808C108.846 182.491 109.015 182.147 109.331 182.039C109.448 181.999 121.1 177.988 130.244 172.764C139.973 167.205 145.361 159.611 144.292 156.007C143.551 153.511 139.994 153.186 137.143 153.35C136.81 153.363 136.523 153.114 136.503 152.78C136.483 152.447 136.738 152.16 137.072 152.141C143.035 151.792 144.919 153.864 145.452 155.663C146.848 160.364 140.432 168.338 130.845 173.816C121.6 179.099 109.841 183.145 109.723 183.186C109.659 183.207 109.592 183.218 109.527 183.218Z" fill="#060606"/>
<path d="M113.658 200.633C113.365 200.633 113.108 200.419 113.061 200.12C113.01 199.789 113.237 199.48 113.567 199.428C113.648 199.416 121.831 198.048 138.052 187.828C147.373 181.955 149.761 174.068 148.035 169.223C146.995 166.307 144.6 164.783 141.57 165.154C141.24 165.196 140.936 164.959 140.896 164.627C140.854 164.295 141.091 163.993 141.423 163.952C144.968 163.508 147.95 165.376 149.177 168.816C151.059 174.101 148.583 182.625 138.698 188.852C122.217 199.235 114.089 200.573 113.752 200.625C113.72 200.63 113.689 200.633 113.658 200.633Z" fill="#060606"/>
<path d="M124.579 211.554C124.295 211.554 124.042 211.353 123.986 211.064C123.921 210.735 124.135 210.417 124.464 210.353C124.769 210.294 154.964 204.224 155.428 189.368C155.505 186.941 154.89 185.252 153.601 184.35C151.07 182.575 146.568 184.074 144.751 184.801C144.44 184.925 144.088 184.774 143.964 184.464C143.84 184.153 143.99 183.801 144.301 183.676C146.301 182.876 151.28 181.245 154.295 183.357C155.941 184.509 156.73 186.544 156.64 189.406C156.434 195.999 150.808 201.924 140.37 206.54C132.595 209.978 124.774 211.527 124.696 211.542C124.657 211.55 124.618 211.554 124.579 211.554Z" fill="#060606"/>
<path d="M123.67 155.738C122.139 155.738 120.751 155.557 119.778 155.209C119.037 154.945 118.876 154.427 118.846 154.142C118.622 152.041 124.806 147.965 127.475 146.311C127.757 146.137 128.132 146.222 128.309 146.506C128.485 146.79 128.397 147.163 128.114 147.34C123.701 150.076 119.942 153.186 120.05 154.008C120.057 154.008 120.095 154.036 120.185 154.068C122.98 155.066 129.932 154.45 132.124 152.059C132.351 151.811 132.736 151.797 132.98 152.021C133.226 152.248 133.242 152.63 133.016 152.877C131.221 154.835 127.091 155.738 123.67 155.738Z" fill="#060606"/>
<path d="M129.873 167.937C127.409 167.937 126.598 167.07 126.351 166.332C125.374 163.402 133.228 158.814 134.812 157.923C135.106 157.759 135.472 157.864 135.637 158.155C135.801 158.446 135.697 158.816 135.406 158.98C131.263 161.308 127.063 164.635 127.501 165.949C127.668 166.448 128.61 166.748 130.016 166.724C133.136 166.678 136.9 165.221 137.198 164.23C137.294 163.909 137.636 163.73 137.952 163.824C138.272 163.92 138.455 164.258 138.358 164.578C137.772 166.531 132.96 167.892 130.034 167.935C129.98 167.937 129.925 167.937 129.873 167.937Z" fill="#060606"/>
<path d="M137.352 181.254C137.206 181.254 137.067 181.242 136.937 181.216C136.443 181.118 136.062 180.844 135.834 180.426C134.39 177.778 141.218 170.623 142.602 169.215C142.836 168.976 143.219 168.975 143.458 169.208C143.697 169.442 143.7 169.826 143.465 170.065C139.784 173.811 136.226 178.615 136.897 179.846C136.937 179.92 136.999 179.993 137.174 180.028C138.709 180.332 143.129 177.344 145.557 175.387C145.815 175.177 146.196 175.216 146.409 175.478C146.618 175.739 146.577 176.12 146.316 176.33C145.663 176.856 140.123 181.254 137.352 181.254Z" fill="#060606"/>
<path d="M144.653 197.391C143.457 197.391 142.368 197.023 141.63 196.016C138.97 192.389 146.948 186.073 147.866 185.365C148.128 185.161 148.51 185.209 148.715 185.475C148.92 185.74 148.871 186.12 148.606 186.325C146.522 187.933 140.945 193.034 142.607 195.3C144.28 197.585 149.473 194.872 151.332 193.635C151.61 193.448 151.986 193.525 152.172 193.803C152.357 194.081 152.282 194.457 152.004 194.643C151.777 194.793 147.83 197.391 144.653 197.391Z" fill="#060606"/>
<path d="M139.599 133.609C137.389 133.609 135.075 131.818 132.717 128.28C132.531 128.001 132.607 127.626 132.885 127.44C133.16 127.255 133.538 127.327 133.725 127.608C135.884 130.846 138.007 132.504 139.771 132.392C141.737 132.275 142.87 130.081 142.881 130.059C143.03 129.762 143.393 129.64 143.694 129.79C143.992 129.94 144.113 130.303 143.963 130.602C143.905 130.717 142.516 133.435 139.852 133.601C139.768 133.606 139.684 133.609 139.599 133.609Z" fill="#060606"/>
<path d="M149.497 143.525C149.267 143.525 149.047 143.393 148.945 143.17C148.807 142.867 148.941 142.508 149.243 142.369C149.269 142.357 151.467 141.297 153.073 137.886C153.215 137.583 153.579 137.454 153.878 137.596C154.181 137.738 154.311 138.099 154.168 138.402C152.358 142.249 149.853 143.422 149.747 143.47C149.666 143.508 149.581 143.525 149.497 143.525Z" fill="#060606"/>
<path d="M151.233 148.95C151.049 148.95 150.865 148.865 150.747 148.705C150.547 148.436 150.604 148.056 150.873 147.857C152.434 146.7 156.487 143.126 156.487 140.531C156.487 140.196 156.758 139.925 157.093 139.925C157.428 139.925 157.698 140.196 157.698 140.531C157.698 144.265 151.842 148.646 151.594 148.831C151.485 148.911 151.359 148.95 151.233 148.95Z" fill="#060606"/>
<path d="M111.727 159.343C111.588 159.343 111.447 159.295 111.333 159.197C106.582 155.125 108.896 151.526 108.92 151.49C109.107 151.211 109.484 151.138 109.76 151.322C110.037 151.507 110.112 151.88 109.93 152.158C109.859 152.27 108.217 154.932 112.121 158.277C112.376 158.496 112.405 158.878 112.187 159.131C112.068 159.271 111.898 159.343 111.727 159.343Z" fill="#060606"/>
<path d="M107.329 159.971C107.19 159.971 107.049 159.923 106.935 159.825C102.186 155.753 104.498 152.154 104.522 152.118C104.709 151.838 105.086 151.766 105.362 151.95C105.639 152.135 105.714 152.509 105.532 152.787C105.452 152.913 103.831 155.568 107.723 158.906C107.978 159.124 108.007 159.506 107.789 159.76C107.669 159.9 107.5 159.971 107.329 159.971Z" fill="#060606"/>
<path d="M113.823 177.773C113.683 177.773 113.542 177.725 113.429 177.628C108.678 173.556 110.991 169.957 111.014 169.921C111.201 169.641 111.579 169.569 111.854 169.753C112.131 169.937 112.207 170.312 112.025 170.59C111.944 170.715 110.324 173.371 114.217 176.708C114.471 176.926 114.501 177.308 114.283 177.562C114.163 177.701 113.993 177.773 113.823 177.773Z" fill="#060606"/>
<path d="M117.801 175.888C117.661 175.888 117.52 175.84 117.407 175.742C112.657 171.671 114.97 168.072 114.993 168.036C115.18 167.757 115.558 167.684 115.833 167.868C116.11 168.052 116.186 168.426 116.004 168.704C115.927 168.823 114.298 171.482 118.195 174.823C118.449 175.041 118.479 175.423 118.261 175.677C118.14 175.817 117.971 175.888 117.801 175.888Z" fill="#060606"/>
<path d="M123.246 192.225C123.107 192.225 122.966 192.177 122.852 192.079C118.103 188.007 120.415 184.408 120.439 184.372C120.626 184.093 121.002 184.019 121.279 184.204C121.556 184.388 121.631 184.762 121.449 185.04C121.376 185.155 119.74 187.815 123.64 191.16C123.895 191.378 123.924 191.76 123.707 192.014C123.586 192.153 123.416 192.225 123.246 192.225Z" fill="#060606"/>
<path d="M118.64 194.948C118.5 194.948 118.359 194.9 118.246 194.802C113.495 190.73 115.808 187.131 115.831 187.094C116.017 186.815 116.396 186.742 116.671 186.926C116.948 187.111 117.024 187.485 116.842 187.763C116.761 187.889 115.141 190.544 119.034 193.882C119.288 194.1 119.318 194.482 119.1 194.736C118.979 194.876 118.81 194.948 118.64 194.948Z" fill="#060606"/>
<path d="M132.253 206.257C132.113 206.257 131.972 206.209 131.859 206.111C127.108 202.039 129.422 198.44 129.445 198.404C129.632 198.125 130.01 198.052 130.285 198.236C130.562 198.42 130.638 198.794 130.456 199.072C130.381 199.189 128.746 201.848 132.647 205.192C132.901 205.409 132.931 205.792 132.713 206.045C132.592 206.185 132.423 206.257 132.253 206.257Z" fill="#060606"/>
<path d="M126.807 207.932C126.668 207.932 126.527 207.884 126.413 207.786C121.662 203.714 123.976 200.115 124 200.079C124.185 199.799 124.563 199.728 124.84 199.911C125.117 200.096 125.192 200.469 125.01 200.747C124.939 200.859 123.297 203.521 127.201 206.866C127.456 207.085 127.485 207.467 127.267 207.721C127.148 207.861 126.978 207.932 126.807 207.932Z" fill="#060606"/>
<path d="M139.376 55.5278C139.076 55.5278 138.816 55.3044 138.776 54.9984C135.816 31.6169 116.82 18.6063 116.628 18.4773C116.351 18.2908 116.277 17.9143 116.464 17.6368C116.652 17.3583 117.029 17.2868 117.305 17.4718C117.5 17.6038 136.95 30.9243 139.978 54.8458C140.02 55.1778 139.785 55.4814 139.453 55.5234C139.427 55.5259 139.402 55.5278 139.376 55.5278Z" fill="#060606"/>
<path d="M139.984 72.4875C139.964 72.4875 139.942 72.4865 139.922 72.4845C139.59 72.4515 139.346 72.1545 139.38 71.8215C139.674 68.881 139.082 61.406 139.076 61.3305C139.049 60.997 139.297 60.7045 139.631 60.678C139.959 60.656 140.257 60.9 140.283 61.2335C140.308 61.545 140.89 68.894 140.585 71.942C140.554 72.2545 140.29 72.4875 139.984 72.4875Z" fill="#060606"/>
<path d="M81.2679 106.839C85.3029 106.839 88.5739 103.568 88.5739 99.5331C88.5739 95.4981 85.3029 92.2271 81.2679 92.2271C77.2329 92.2271 73.9619 95.4981 73.9619 99.5331C73.9619 103.568 77.2329 106.839 81.2679 106.839Z" fill="#060606"/>
<path d="M57.0254 56.362C57.0254 56.362 67.3199 58.3545 68.3164 57.6905C69.3129 57.0265 68.9804 43.079 79.9394 42.0825C90.8984 41.086 96.8759 51.049 87.9094 58.687C78.9429 66.325 74.6259 65.993 72.9654 74.959C71.4829 82.964 73.6294 88.2425 74.6259 88.9065C75.6224 89.5705 85.2524 89.5705 85.5849 88.2425C85.9169 86.914 83.2604 76.2875 87.2454 73.631C91.2304 70.9745 103.827 64.9575 104.846 51.7135C106.174 34.445 87.2454 25.1465 74.2939 29.1315C61.3424 33.1165 55.3654 53.373 57.0254 56.362Z" fill="#060606"/>
<path d="M93.9489 37.357C93.8154 37.357 93.6829 37.314 93.5704 37.2245C83.4709 29.144 75.0364 35.936 74.9524 36.0065C74.6959 36.2195 74.3124 36.1845 74.1004 35.926C73.8864 35.668 73.9229 35.2865 74.1809 35.073C74.2709 34.9975 83.4709 27.593 94.3274 36.278C94.5889 36.4875 94.6304 36.8685 94.4219 37.13C94.3024 37.279 94.1259 37.357 93.9489 37.357Z" fill="#060606"/>
<path d="M100.915 47.9565C100.58 47.9565 100.309 47.6855 100.309 47.351C100.309 43.9935 96.5724 39.93 96.5344 39.889C96.3059 39.6435 96.3204 39.26 96.5664 39.033C96.8089 38.8065 97.1934 38.819 97.4219 39.0645C97.5899 39.245 101.521 43.5225 101.521 47.351C101.52 47.686 101.249 47.9565 100.915 47.9565Z" fill="#060606"/>
<path d="M31.9414 105.005C31.8679 105.005 31.7934 104.992 31.7204 104.964C28.3749 103.654 27.877 99.8635 27.858 99.703C27.818 99.371 28.0529 99.07 28.3844 99.0295C28.7084 98.9885 29.0175 99.2235 29.06 99.5555C29.0645 99.588 29.499 102.794 32.163 103.836C32.474 103.958 32.6279 104.308 32.5059 104.62C32.4124 104.859 32.1829 105.005 31.9414 105.005Z" fill="#060606"/>
<path d="M32.8497 96.829C32.7762 96.829 32.7017 96.816 32.6287 96.7875C29.2832 95.478 28.7852 91.687 28.7662 91.5265C28.7262 91.1945 28.9612 90.8935 29.2927 90.853C29.6147 90.81 29.9257 91.047 29.9682 91.379C29.9727 91.4115 30.4072 94.617 33.0712 95.659C33.3822 95.781 33.5362 96.132 33.4142 96.444C33.3207 96.6825 33.0912 96.829 32.8497 96.829Z" fill="#060606"/>
<path d="M39.21 106.52C39.1365 106.52 39.062 106.507 38.989 106.479C35.6435 105.169 35.1455 101.378 35.1265 101.218C35.0865 100.886 35.3215 100.585 35.653 100.544C35.975 100.508 36.286 100.738 36.3285 101.07C36.333 101.103 36.7675 104.308 39.4315 105.35C39.7425 105.472 39.8965 105.823 39.7745 106.135C39.681 106.374 39.4515 106.52 39.21 106.52Z" fill="#060606"/>
<path d="M39.9536 113.68C39.8921 113.68 39.8296 113.671 39.7666 113.651C36.3491 112.543 35.6271 108.788 35.5976 108.629C35.5386 108.3 35.7551 107.986 36.0836 107.925C36.4146 107.862 36.7271 108.083 36.7886 108.41C36.7956 108.442 37.4191 111.616 40.1401 112.498C40.4581 112.601 40.6321 112.943 40.5291 113.261C40.4471 113.518 40.2091 113.68 39.9536 113.68Z" fill="#060606"/>
<path d="M25.5055 87.9325C25.3635 87.9325 25.2215 87.8835 25.107 87.783C22.4015 85.4195 23.214 81.684 23.251 81.526C23.3255 81.2 23.646 80.996 23.974 81.07C24.3005 81.1435 24.505 81.4675 24.432 81.7935C24.426 81.8255 23.7505 84.989 25.905 86.871C26.157 87.091 26.183 87.4735 25.963 87.7255C25.8415 87.8625 25.6735 87.9325 25.5055 87.9325Z" fill="#060606"/>
<path d="M19.7458 84.0375C19.5778 84.0375 19.4098 83.9675 19.2903 83.831C16.9218 81.1285 18.2243 77.534 18.2813 77.382C18.3983 77.0695 18.7448 76.91 19.0598 77.0265C19.3723 77.1425 19.5328 77.491 19.4173 77.8045C19.4068 77.8345 18.3173 80.8815 20.2018 83.033C20.4218 83.2845 20.3968 83.667 20.1448 83.8875C20.0298 83.988 19.8878 84.0375 19.7458 84.0375Z" fill="#060606"/>
<path d="M25.5053 96.458C25.4023 96.458 25.2983 96.432 25.2023 96.377C22.0908 94.5795 22.1693 90.7565 22.1738 90.5945C22.1843 90.267 22.4528 90.0075 22.7793 90.0075C22.7838 90.0075 22.7898 90.0075 22.7958 90.008C23.1293 90.017 23.3933 90.2955 23.3848 90.629C23.3838 90.6615 23.3318 93.8965 25.8078 95.3275C26.0978 95.495 26.1968 95.866 26.0288 96.155C25.9173 96.3495 25.7138 96.458 25.5053 96.458Z" fill="#060606"/>
<path d="M78.728 201.578C78.4025 201.578 78.134 201.321 78.1225 200.994C78.1105 200.659 78.3735 200.379 78.707 200.367C79.5065 200.339 80.291 200.264 81.04 200.144C81.363 200.091 81.68 200.315 81.733 200.645C81.786 200.976 81.5625 201.286 81.2315 201.34C80.434 201.468 79.598 201.549 78.7495 201.578C78.7425 201.578 78.735 201.578 78.728 201.578ZM76.309 201.533C76.295 201.533 76.2805 201.533 76.2665 201.532C75.4725 201.477 74.6445 201.383 73.808 201.251C73.477 201.199 73.251 200.889 73.303 200.559C73.355 200.227 73.6675 200.007 73.995 200.054C74.7985 200.18 75.591 200.271 76.349 200.323C76.684 200.347 76.9345 200.636 76.912 200.97C76.8895 201.289 76.6235 201.533 76.309 201.533ZM83.491 200.796C83.233 200.796 82.994 200.63 82.9125 200.371C82.813 200.052 82.9905 199.712 83.31 199.612C84.059 199.377 84.783 199.085 85.4595 198.743C85.7565 198.591 86.122 198.711 86.2735 199.01C86.4235 199.309 86.3045 199.673 86.006 199.824C85.27 200.196 84.4845 200.514 83.672 200.768C83.6115 200.787 83.551 200.796 83.491 200.796ZM71.525 200.79C71.4775 200.79 71.429 200.784 71.3795 200.772C70.5455 200.566 69.742 200.303 68.9935 199.987C68.6845 199.858 68.539 199.503 68.6695 199.194C68.7985 198.887 69.1555 198.741 69.462 198.871C70.154 199.161 70.897 199.405 71.6705 199.597C71.9945 199.677 72.1935 200.005 72.113 200.33C72.0455 200.605 71.797 200.79 71.525 200.79ZM67.0885 198.906C66.975 198.906 66.86 198.875 66.7585 198.808C66.0485 198.346 65.3815 197.817 64.776 197.234C64.5345 197.002 64.5275 196.618 64.7595 196.378C64.9935 196.136 65.377 196.131 65.616 196.361C66.166 196.891 66.773 197.373 67.419 197.793C67.6995 197.975 67.7785 198.35 67.5965 198.631C67.48 198.809 67.286 198.906 67.0885 198.906ZM87.7875 198.616C87.603 198.616 87.421 198.532 87.3025 198.373C87.1025 198.105 87.157 197.726 87.4255 197.525C88.042 197.065 88.6205 196.546 89.1455 195.982C89.375 195.739 89.757 195.724 90.002 195.952C90.247 196.18 90.26 196.563 90.033 196.808C89.458 197.425 88.825 197.993 88.1495 198.497C88.0405 198.577 87.914 198.616 87.7875 198.616ZM63.62 195.568C63.4305 195.568 63.244 195.48 63.1255 195.313C62.649 194.64 62.2205 193.907 61.8525 193.133C61.7095 192.83 61.8385 192.469 62.14 192.326C62.4395 192.183 62.8035 192.31 62.948 192.613C63.285 193.324 63.6765 193.996 64.1145 194.611C64.3075 194.885 64.2435 195.262 63.97 195.456C63.8635 195.532 63.742 195.568 63.62 195.568ZM91.075 195.088C90.9625 195.088 90.849 195.057 90.7475 194.992C90.466 194.811 90.3845 194.436 90.5655 194.155C91.306 193.004 91.5945 192.14 91.597 192.131C91.701 191.813 92.043 191.639 92.361 191.744C92.678 191.848 92.852 192.188 92.749 192.506C92.736 192.547 92.4155 193.518 91.585 194.81C91.469 194.99 91.274 195.088 91.075 195.088ZM61.5415 191.217C61.28 191.217 61.0385 191.046 60.9605 190.783C60.7265 189.994 60.5455 189.17 60.421 188.336C60.3715 188.006 60.5995 187.697 60.931 187.648C61.253 187.606 61.571 187.827 61.6185 188.158C61.7345 188.936 61.905 189.703 62.1225 190.439C62.217 190.76 62.035 191.097 61.713 191.192C61.656 191.209 61.5985 191.217 61.5415 191.217ZM60.8125 186.439C60.485 186.439 60.215 186.177 60.207 185.848L60.2025 185.399C60.2025 184.713 60.237 184.023 60.3065 183.351C60.341 183.018 60.6415 182.782 60.97 182.81C61.2515 182.839 61.468 183.055 61.507 183.323C61.998 183.077 62.4795 182.809 62.943 182.52C63.2255 182.346 63.601 182.43 63.777 182.715C63.9535 182.999 63.8655 183.372 63.582 183.549C62.8925 183.978 62.167 184.367 61.4265 184.703C61.418 184.935 61.4135 185.168 61.4135 185.399L61.418 185.818C61.4265 186.152 61.1615 186.43 60.8275 186.439C60.822 186.439 60.8175 186.439 60.8125 186.439ZM54.078 186.296C54.0735 186.296 54.0685 186.296 54.065 186.296C53.212 186.277 52.366 186.183 51.5525 186.016C51.225 185.949 51.014 185.628 51.0805 185.301C51.148 184.972 51.4735 184.763 51.796 184.829C52.539 184.981 53.3115 185.068 54.091 185.085C54.426 185.092 54.691 185.369 54.6835 185.704C54.6765 186.034 54.407 186.296 54.078 186.296ZM56.491 186.149C56.195 186.149 55.936 185.931 55.8925 185.629C55.845 185.298 56.076 184.991 56.407 184.943C57.162 184.836 57.927 184.667 58.683 184.442C59.006 184.346 59.342 184.529 59.4365 184.85C59.531 185.17 59.349 185.507 59.0285 185.603C58.216 185.845 57.391 186.026 56.5775 186.143C56.549 186.147 56.5195 186.149 56.491 186.149ZM49.3575 185.324C49.2805 185.324 49.2025 185.31 49.128 185.279C48.3565 184.963 47.602 184.569 46.886 184.108C46.6045 183.927 46.523 183.553 46.704 183.271C46.885 182.99 47.259 182.908 47.5415 183.09C48.1955 183.51 48.884 183.87 49.587 184.159C49.897 184.285 50.045 184.639 49.918 184.949C49.8215 185.183 49.5955 185.324 49.3575 185.324ZM45.2965 182.73C45.151 182.73 45.0055 182.678 44.8895 182.573C44.2885 182.028 43.7065 181.419 43.159 180.761C42.946 180.504 42.9805 180.122 43.2385 179.908C43.494 179.696 43.876 179.73 44.0915 179.986C44.6015 180.6 45.1445 181.169 45.704 181.675C45.951 181.9 45.97 182.282 45.7455 182.53C45.6255 182.663 45.461 182.73 45.2965 182.73ZM65.223 182.22C65.0515 182.22 64.88 182.147 64.7605 182.005C64.544 181.749 64.577 181.367 64.8325 181.151C65.464 180.619 66.0095 180.068 66.452 179.515C66.6615 179.253 67.046 179.212 67.304 179.421C67.5655 179.63 67.607 180.011 67.3985 180.272C66.905 180.887 66.3055 181.494 65.6135 182.078C65.5 182.174 65.3615 182.22 65.223 182.22ZM61.3145 181.631C61.2685 181.631 61.22 181.626 61.1725 181.614C60.847 181.536 60.647 181.209 60.7255 180.884C60.9325 180.024 61.1965 179.217 61.5085 178.486C61.64 178.179 61.9995 178.035 62.3035 178.167C62.611 178.298 62.754 178.654 62.623 178.962C62.3365 179.631 62.0955 180.373 61.9035 181.167C61.836 181.445 61.589 181.631 61.3145 181.631ZM42.1925 179.03C41.995 179.03 41.801 178.933 41.685 178.755C41.2295 178.056 40.806 177.34 40.424 176.625C40.2665 176.33 40.378 175.963 40.6735 175.806C40.9655 175.648 41.335 175.758 41.4935 176.055C41.858 176.739 42.265 177.425 42.7 178.094C42.882 178.374 42.803 178.749 42.5235 178.932C42.4205 178.998 42.306 179.03 42.1925 179.03ZM68.0955 178.395C68.041 178.395 67.9865 178.388 67.932 178.373C67.609 178.282 67.422 177.948 67.512 177.626C67.569 177.422 67.5985 177.228 67.5985 177.05C67.5985 176.639 67.4495 176.337 67.1275 176.1C66.859 175.9 66.802 175.521 67.002 175.253C67.202 174.982 67.5805 174.927 67.849 175.126C68.477 175.592 68.8095 176.257 68.8095 177.05C68.8095 177.339 68.7655 177.642 68.678 177.953C68.604 178.221 68.3605 178.395 68.0955 178.395ZM63.2755 177.239C63.143 177.239 63.0095 177.196 62.898 177.107C62.6365 176.898 62.593 176.518 62.802 176.256C63.4705 175.417 64.2135 174.869 65.0095 174.628C65.3265 174.53 65.6675 174.712 65.7645 175.032C65.8615 175.352 65.6805 175.69 65.36 175.787C64.8125 175.953 64.255 176.376 63.749 177.011C63.6295 177.161 63.453 177.239 63.2755 177.239ZM39.934 174.752C39.695 174.752 39.468 174.609 39.372 174.373C39.055 173.589 38.7875 172.793 38.577 172.009C38.4895 171.686 38.681 171.354 39.004 171.267C39.333 171.181 39.6595 171.371 39.7455 171.694C39.944 172.432 40.196 173.18 40.4955 173.919C40.621 174.229 40.4705 174.582 40.1605 174.707C40.0865 174.737 40.0095 174.752 39.934 174.752ZM38.6895 170.083C38.389 170.083 38.129 169.859 38.0895 169.553C38.001 168.85 37.957 168.149 37.958 167.467L37.964 167.044C37.9725 166.711 38.2705 166.448 38.585 166.455C38.92 166.464 39.1835 166.742 39.1755 167.076L39.1695 167.468C39.1685 168.099 39.2095 168.749 39.2915 169.401C39.333 169.733 39.0975 170.036 38.766 170.078C38.7405 170.081 38.7155 170.083 38.6895 170.083ZM38.8255 165.26C38.7875 165.26 38.75 165.257 38.712 165.25C38.383 165.188 38.1665 164.871 38.2295 164.542C38.3845 163.722 38.608 162.905 38.8955 162.114C39.009 161.8 39.357 161.64 39.6715 161.752C39.986 161.866 40.148 162.214 40.0335 162.528C39.907 162.876 39.7945 163.23 39.695 163.586C40.277 163.693 40.852 163.756 41.409 163.776C41.7425 163.787 42.004 164.067 41.9935 164.402C41.9815 164.736 41.7095 165.039 41.3665 164.986C40.7325 164.965 40.0795 164.891 39.4195 164.767C39.365 165.058 39.1105 165.26 38.8255 165.26ZM43.7955 164.799C43.513 164.799 43.261 164.6 43.203 164.312C43.1365 163.983 43.3495 163.665 43.6785 163.599C44.4295 163.449 45.15 163.207 45.821 162.879C46.118 162.734 46.4845 162.857 46.63 163.158C46.7765 163.459 46.6515 163.822 46.351 163.969C45.588 164.34 44.768 164.616 43.915 164.786C43.8755 164.795 43.8355 164.799 43.7955 164.799ZM36.6795 163.945C36.606 163.945 36.5305 163.931 36.4585 163.903C35.717 163.612 34.956 163.259 34.198 162.853C33.9025 162.696 33.791 162.329 33.9485 162.034C34.107 161.739 34.475 161.628 34.7685 161.785C35.4865 162.168 36.2035 162.501 36.9015 162.775C37.2125 162.898 37.3665 163.249 37.2445 163.561C37.149 163.799 36.921 163.945 36.6795 163.945ZM48.099 162.698C47.93 162.698 47.7605 162.627 47.641 162.489C47.422 162.236 47.4495 161.853 47.7025 161.634C48.274 161.138 48.78 160.57 49.206 159.947C49.3955 159.671 49.7715 159.601 50.0485 159.789C50.324 159.977 50.395 160.354 50.207 160.63C49.722 161.339 49.146 161.985 48.495 162.55C48.382 162.649 48.24 162.698 48.099 162.698ZM32.404 161.684C32.289 161.684 32.1745 161.652 32.0715 161.585C31.3615 161.12 30.685 160.634 30.0615 160.143C29.799 159.936 29.754 159.555 29.961 159.292C30.168 159.03 30.55 158.986 30.8115 159.192C31.4075 159.661 32.055 160.126 32.736 160.572C33.015 160.756 33.0935 161.131 32.91 161.41C32.7945 161.588 32.6005 161.684 32.404 161.684ZM40.471 160.726C40.3705 160.726 40.27 160.701 40.1765 160.649C39.8845 160.487 39.779 160.117 39.9425 159.825C40.347 159.099 40.8155 158.394 41.335 157.732C41.541 157.467 41.9205 157.421 42.1855 157.628C42.448 157.834 42.4945 158.215 42.2885 158.478C41.808 159.092 41.375 159.743 41 160.415C40.89 160.615 40.683 160.726 40.471 160.726ZM50.7925 158.735C50.7285 158.735 50.6645 158.725 50.601 158.704C50.284 158.598 50.1125 158.255 50.2175 157.938C50.4235 157.321 50.532 156.709 50.532 156.167C50.532 156.043 50.526 155.921 50.5145 155.803C50.4825 155.47 50.7275 155.174 51.06 155.143C51.39 155.106 51.688 155.355 51.7215 155.688C51.7355 155.843 51.744 156.004 51.744 156.167C51.744 156.847 51.6175 157.572 51.368 158.321C51.2825 158.575 51.046 158.735 50.7925 158.735ZM28.614 158.679C28.4615 158.679 28.309 158.622 28.1905 158.507C27.58 157.91 27.017 157.285 26.5175 156.651C26.3105 156.388 26.3555 156.007 26.618 155.8C26.8795 155.594 27.2605 155.638 27.4685 155.902C27.936 156.495 28.4635 157.08 29.037 157.64C29.276 157.874 29.2805 158.258 29.0465 158.497C28.9285 158.618 28.771 158.679 28.614 158.679ZM43.4535 156.931C43.29 156.931 43.128 156.866 43.0085 156.736C42.7815 156.491 42.7965 156.107 43.043 155.881C43.682 155.29 44.356 154.77 45.047 154.334C45.324 154.156 45.7035 154.238 45.882 154.522C46.0605 154.805 45.9755 155.179 45.6925 155.358C45.0655 155.755 44.449 156.23 43.8635 156.77C43.748 156.878 43.6 156.931 43.4535 156.931ZM25.6505 154.87C25.4385 154.87 25.2315 154.758 25.1215 154.559C24.705 153.811 24.3595 153.033 24.0945 152.248C23.987 151.931 24.157 151.588 24.474 151.481C24.798 151.372 25.1355 151.544 25.242 151.861C25.4835 152.577 25.799 153.287 26.179 153.971C26.3425 154.264 26.237 154.632 25.945 154.795C25.8515 154.846 25.751 154.87 25.6505 154.87ZM47.5525 154.416C47.2935 154.416 47.0535 154.248 46.973 153.987C46.876 153.668 47.056 153.329 47.375 153.231C48.4785 152.894 49.4545 152.891 50.175 153.215C50.479 153.352 50.615 153.711 50.478 154.016C50.3395 154.321 49.981 154.456 49.676 154.319C49.236 154.121 48.5355 154.144 47.73 154.39C47.671 154.408 47.6105 154.416 47.5525 154.416ZM24.1245 150.304C23.825 150.304 23.564 150.081 23.5245 149.776C23.4545 149.235 23.419 148.679 23.418 148.123C23.418 147.821 23.4275 147.526 23.4475 147.239C23.471 146.905 23.7635 146.664 24.0935 146.676C24.427 146.699 24.679 146.989 24.6565 147.323C24.639 147.583 24.6295 147.849 24.6295 148.122C24.6305 148.626 24.664 149.13 24.7265 149.621C24.769 149.953 24.535 150.257 24.2025 150.299C24.1765 150.302 24.1505 150.304 24.1245 150.304ZM24.4365 145.498C24.387 145.498 24.337 145.492 24.2865 145.479C23.9625 145.395 23.767 145.066 23.85 144.742C24.1175 143.7 24.459 142.868 24.6995 142.354C24.8415 142.05 25.2035 141.922 25.505 142.061C25.808 142.203 25.939 142.563 25.797 142.866C25.578 143.334 25.267 144.091 25.0235 145.042C24.9535 145.316 24.7075 145.498 24.4365 145.498Z" fill="#060606"/>
<path d="M163.12 119.989C162.798 119.989 162.531 119.736 162.516 119.412C162.499 119.078 162.757 118.794 163.092 118.778C163.852 118.742 164.627 118.642 165.396 118.482C165.726 118.414 166.046 118.623 166.113 118.951C166.182 119.278 165.972 119.599 165.645 119.667C164.813 119.841 163.973 119.949 163.149 119.988C163.139 119.989 163.13 119.989 163.12 119.989ZM160.703 119.903C160.678 119.903 160.654 119.902 160.63 119.899C159.793 119.798 158.962 119.624 158.158 119.381C157.839 119.285 157.657 118.947 157.754 118.627C157.851 118.307 158.184 118.127 158.508 118.222C159.244 118.444 160.007 118.604 160.774 118.696C161.106 118.736 161.343 119.038 161.303 119.371C161.266 119.678 161.005 119.903 160.703 119.903ZM167.846 119.012C167.599 119.012 167.367 118.859 167.277 118.614C167.163 118.299 167.325 117.951 167.639 117.837C168.027 117.696 168.416 117.537 168.809 117.362C169.139 117.214 169.462 117.057 169.777 116.89C170.07 116.734 170.439 116.846 170.595 117.142C170.751 117.438 170.638 117.805 170.342 117.961C170.006 118.139 169.66 118.308 169.304 118.467C168.885 118.655 168.467 118.825 168.053 118.975C167.985 119 167.915 119.012 167.846 119.012ZM156.088 118.512C155.996 118.512 155.904 118.491 155.816 118.447C155.07 118.072 154.346 117.627 153.668 117.126C153.398 116.928 153.341 116.548 153.54 116.279C153.74 116.011 154.121 115.954 154.387 116.151C155.01 116.612 155.674 117.02 156.36 117.364C156.659 117.514 156.779 117.878 156.629 118.178C156.524 118.39 156.31 118.512 156.088 118.512ZM172.113 116.751C171.926 116.751 171.742 116.664 171.623 116.502C171.427 116.231 171.486 115.852 171.757 115.655C172.38 115.201 172.979 114.694 173.536 114.149C173.777 113.915 174.16 113.92 174.392 114.159C174.626 114.398 174.622 114.782 174.383 115.015C173.784 115.601 173.141 116.146 172.469 116.635C172.362 116.713 172.237 116.751 172.113 116.751ZM152.212 115.644C152.052 115.644 151.892 115.582 151.774 115.457C151.187 114.842 150.656 114.178 150.196 113.483C150.012 113.204 150.087 112.828 150.367 112.643C150.642 112.46 151.02 112.533 151.207 112.814C151.628 113.45 152.113 114.057 152.65 114.62C152.882 114.862 152.873 115.246 152.63 115.477C152.512 115.589 152.362 115.644 152.212 115.644ZM175.564 113.38C175.434 113.38 175.304 113.338 175.194 113.253C174.929 113.049 174.88 112.668 175.085 112.403C175.551 111.801 175.991 111.147 176.393 110.461C176.562 110.17 176.932 110.075 177.223 110.244C177.511 110.413 177.608 110.784 177.439 111.072C177.011 111.804 176.541 112.501 176.043 113.145C175.924 113.299 175.745 113.38 175.564 113.38ZM149.555 111.623C149.318 111.623 149.093 111.484 148.996 111.252C148.661 110.455 148.411 109.637 148.252 108.821C148.188 108.492 148.404 108.175 148.731 108.111C149.055 108.046 149.377 108.26 149.442 108.59C149.584 109.324 149.81 110.062 150.113 110.782C150.243 111.091 150.098 111.446 149.789 111.575C149.713 111.608 149.633 111.623 149.555 111.623ZM178.015 109.214C177.934 109.214 177.851 109.198 177.772 109.163C177.467 109.028 177.327 108.671 177.461 108.365C177.768 107.662 178.049 106.919 178.292 106.156C178.394 105.837 178.735 105.664 179.054 105.764C179.372 105.866 179.549 106.207 179.447 106.526C179.189 107.328 178.895 108.111 178.571 108.852C178.471 109.079 178.248 109.214 178.015 109.214ZM148.652 106.902C148.645 106.902 148.639 106.902 148.632 106.902C148.297 106.891 148.036 106.61 148.046 106.276C148.076 105.412 148.21 104.559 148.445 103.742C148.537 103.42 148.875 103.235 149.194 103.327C149.516 103.42 149.701 103.755 149.609 104.077C149.402 104.798 149.283 105.553 149.257 106.317C149.246 106.645 148.977 106.902 148.652 106.902ZM179.496 104.606C179.454 104.606 179.41 104.602 179.366 104.592C179.04 104.521 178.833 104.198 178.905 103.871C179.072 103.111 179.209 102.325 179.312 101.535C179.356 101.202 179.667 100.967 179.992 101.014C180.323 101.057 180.556 101.362 180.513 101.693C180.404 102.517 180.261 103.337 180.087 104.13C180.026 104.413 179.776 104.606 179.496 104.606ZM149.972 102.291C149.869 102.291 149.765 102.265 149.669 102.21C149.379 102.043 149.28 101.673 149.447 101.383C149.727 100.897 150.052 100.421 150.412 99.9714C150.622 99.7104 151.001 99.6684 151.264 99.8764C151.525 100.085 151.567 100.467 151.358 100.727C151.036 101.131 150.747 101.554 150.497 101.988C150.385 102.182 150.182 102.291 149.972 102.291ZM180.132 99.8069C180.122 99.8069 180.112 99.8069 180.102 99.8064C179.767 99.7899 179.511 99.5054 179.527 99.1709C179.553 98.6349 179.567 98.0999 179.567 97.5664C179.566 97.3104 179.563 97.0514 179.557 96.7929C179.55 96.4589 179.815 96.1814 180.148 96.1734C180.456 96.1779 180.761 96.4309 180.768 96.7654C180.774 97.0309 180.778 97.2974 180.779 97.5634C180.779 98.1199 180.765 98.6754 180.736 99.2314C180.721 99.5549 180.452 99.8069 180.132 99.8069ZM180.013 94.9679C179.706 94.9679 179.443 94.7344 179.411 94.4219C179.334 93.6364 179.226 92.8444 179.088 92.0669C179.03 91.7374 179.249 91.4234 179.579 91.3654C179.902 91.3074 180.223 91.5259 180.281 91.8564C180.424 92.6639 180.536 93.4864 180.618 94.3024C180.65 94.6354 180.407 94.9319 180.074 94.9649C180.054 94.9669 180.033 94.9679 180.013 94.9679ZM179.164 90.2009C178.895 90.2009 178.65 90.0219 178.578 89.7494C178.372 88.9674 178.133 88.2084 177.871 87.4929C177.755 87.1789 177.916 86.8304 178.229 86.7149C178.261 86.7029 178.294 86.6944 178.327 86.6879C178.257 86.6079 178.209 86.5089 178.19 86.3969C178.132 86.0669 178.354 85.7534 178.684 85.6964C179.462 85.5614 180.213 85.3629 180.917 85.1049C181.228 84.9889 181.58 85.1504 181.694 85.4649C181.809 85.7789 181.648 86.1269 181.333 86.2414C180.564 86.5234 179.744 86.7414 178.897 86.8884C178.943 86.9414 178.981 87.0039 179.006 87.0734C179.283 87.8244 179.533 88.6209 179.749 89.4399C179.834 89.7634 179.642 90.0949 179.319 90.1799C179.267 90.1944 179.215 90.2009 179.164 90.2009ZM176.075 87.1269C175.352 87.1269 174.617 87.0819 173.886 86.9939C173.555 86.9539 173.318 86.6514 173.358 86.3194C173.398 85.9869 173.711 85.7589 174.033 85.7904C174.714 85.8734 175.401 85.9154 176.076 85.9154L176.367 85.9129C176.647 85.9194 176.977 86.1739 176.983 86.5079C176.989 86.8419 176.723 87.1184 176.388 87.1244L176.075 87.1269ZM171.579 86.5459C171.528 86.5459 171.477 86.5394 171.425 86.5259C170.58 86.3049 169.779 86.0279 169.046 85.7044C168.739 85.5694 168.6 85.2124 168.735 84.9059C168.871 84.5994 169.23 84.4609 169.533 84.5959C170.21 84.8939 170.949 85.1489 171.732 85.3549C172.055 85.4394 172.249 85.7709 172.164 86.0944C172.093 86.3664 171.847 86.5459 171.579 86.5459ZM177.478 85.6654C177.257 85.6654 177.044 85.5434 176.938 85.3324C176.569 84.6019 176.166 83.9309 175.739 83.3389C175.544 83.0674 175.606 82.6889 175.878 82.4934C176.146 82.2974 176.525 82.3584 176.724 82.6314C177.186 83.2744 177.623 83.9994 178.019 84.7869C178.17 85.0854 178.05 85.4499 177.752 85.6004C177.664 85.6444 177.57 85.6654 177.478 85.6654ZM183.301 85.2234C183.098 85.2234 182.901 85.1224 182.786 84.9369C182.61 84.6529 182.698 84.2799 182.981 84.1029C183.271 83.9224 183.554 83.7274 183.829 83.5154C184.182 83.2444 184.52 82.9724 184.848 82.6989C185.103 82.4849 185.485 82.5179 185.701 82.7759C185.915 83.0324 185.881 83.4139 185.624 83.6289C185.284 83.9129 184.932 84.1954 184.567 84.4754C184.261 84.7114 183.945 84.9304 183.62 85.1319C183.521 85.1939 183.411 85.2234 183.301 85.2234ZM167.206 84.5299C167.071 84.5299 166.937 84.4854 166.824 84.3939C165.932 83.6674 165.46 82.8809 165.46 82.1194C165.46 82.0114 165.47 81.9034 165.489 81.7959C165.549 81.4654 165.866 81.2439 166.194 81.3084C166.523 81.3679 166.74 81.6834 166.681 82.0124C166.672 82.4934 167.007 82.9799 167.589 83.4544C167.849 83.6654 167.888 84.0469 167.676 84.3069C167.556 84.4534 167.381 84.5299 167.206 84.5299ZM187.032 82.1449C186.876 82.1449 186.72 82.0844 186.602 81.9644C186.366 81.7264 186.369 81.3434 186.606 81.1079C187.182 80.5394 187.723 79.9559 188.213 79.3724C188.428 79.1149 188.81 79.0839 189.066 79.2984C189.322 79.5139 189.356 79.8959 189.14 80.1519C188.627 80.7634 188.06 81.3749 187.458 81.9704C187.34 82.0869 187.186 82.1449 187.032 82.1449ZM174.615 81.7949C174.474 81.7949 174.335 81.7469 174.22 81.6484C173.618 81.1294 172.989 80.7564 172.35 80.5379C172.033 80.4304 171.864 80.0859 171.971 79.7689C172.08 79.4524 172.429 79.2829 172.74 79.3914C173.527 79.6594 174.29 80.1099 175.01 80.7299C175.263 80.9484 175.293 81.3304 175.074 81.5839C174.955 81.7234 174.786 81.7949 174.615 81.7949ZM167.813 80.9629C167.571 80.9629 167.342 80.8164 167.249 80.5769C167.127 80.2654 167.282 79.9139 167.594 79.7934C168.259 79.5344 169.091 79.3259 170.066 79.1734C170.397 79.1294 170.706 79.3479 170.758 79.6784C170.81 80.0089 170.583 80.3184 170.253 80.3704C169.364 80.5089 168.618 80.6944 168.032 80.9219C167.961 80.9499 167.886 80.9629 167.813 80.9629ZM190.13 78.4324C190.014 78.4324 189.897 78.3994 189.793 78.3299C189.515 78.1444 189.441 77.7679 189.626 77.4899C190.069 76.8274 190.467 76.1464 190.81 75.4644C190.958 75.1644 191.324 75.0454 191.623 75.1954C191.922 75.3454 192.042 75.7094 191.891 76.0089C191.527 76.7349 191.103 77.4599 190.634 78.1629C190.517 78.3379 190.326 78.4324 190.13 78.4324ZM192.292 74.1129C192.227 74.1129 192.16 74.1024 192.095 74.0804C191.779 73.9724 191.61 73.6279 191.718 73.3114C191.972 72.5674 192.173 71.8084 192.315 71.0554C192.377 70.7259 192.701 70.5089 193.023 70.5719C193.352 70.6334 193.567 70.9504 193.505 71.2789C193.353 72.0889 193.137 72.9044 192.865 73.7029C192.779 73.9549 192.544 74.1129 192.292 74.1129ZM193.182 69.3684C193.175 69.3684 193.167 69.3684 193.159 69.3679C192.825 69.3554 192.565 69.0739 192.577 68.7399C192.585 68.5304 192.59 68.3229 192.59 68.1164C192.591 67.5569 192.56 66.9824 192.5 66.4074C192.464 66.0744 192.706 65.7764 193.038 65.7414C193.359 65.6989 193.669 65.9469 193.704 66.2799C193.769 66.8979 193.802 67.5159 193.801 68.1179C193.801 68.3384 193.797 68.5614 193.788 68.7864C193.775 69.1124 193.507 69.3684 193.182 69.3684ZM192.677 64.5659C192.405 64.5659 192.158 64.3819 192.089 64.1069C191.904 63.3599 191.661 62.6109 191.37 61.8804C191.247 61.5699 191.398 61.2174 191.709 61.0939C192.018 60.9689 192.372 61.1219 192.496 61.4324C192.807 62.2134 193.065 63.0149 193.265 63.8139C193.345 64.1384 193.148 64.4674 192.823 64.5484C192.774 64.5599 192.726 64.5659 192.677 64.5659ZM184.431 60.6624C184.414 60.6624 184.399 60.6619 184.383 60.6604C183.411 60.5859 182.554 60.3864 181.837 60.0684C181.531 59.9329 181.392 59.5749 181.528 59.2694C181.664 58.9624 182.026 58.8269 182.327 58.9614C182.918 59.2234 183.641 59.3884 184.475 59.4529C184.809 59.4784 185.058 59.7699 185.032 60.1034C185.009 60.4214 184.743 60.6624 184.431 60.6624ZM186.845 60.6089C186.54 60.6089 186.276 60.3774 186.244 60.0664C186.209 59.7339 186.45 59.4359 186.783 59.4009C187.269 59.3494 187.782 59.2744 188.328 59.1724C188.59 59.1214 188.852 59.0689 189.107 59.0134C189.438 58.9389 189.757 59.1494 189.828 59.4759C189.9 59.8024 189.692 60.1254 189.365 60.1964C189.1 60.2544 188.829 60.3094 188.554 60.3624C187.972 60.4714 187.425 60.5509 186.911 60.6049C186.888 60.6074 186.866 60.6089 186.845 60.6089ZM190.892 60.0759C190.681 60.0759 190.475 59.9639 190.363 59.7654C189.979 59.0769 189.551 58.4164 189.089 57.8014C188.889 57.5339 188.944 57.1544 189.211 56.9539C189.477 56.7544 189.857 56.8054 190.059 57.0754C190.421 57.5594 190.766 58.0689 191.085 58.5979C191.156 58.5044 191.254 58.4304 191.375 58.3904C192.145 58.1299 192.87 57.8299 193.529 57.4959C193.826 57.3439 194.192 57.4634 194.343 57.7634C194.495 58.0614 194.375 58.4259 194.076 58.5774C193.366 58.9364 192.588 59.2599 191.761 59.5379C191.671 59.5694 191.579 59.5769 191.491 59.5649C191.463 59.7419 191.356 59.9049 191.188 59.9989C191.094 60.0509 190.993 60.0759 190.892 60.0759ZM180.288 58.5614C180.072 58.5614 179.863 58.4454 179.754 58.2414C179.476 57.7234 179.335 57.1589 179.335 56.5644C179.335 56.1849 179.394 55.8014 179.512 55.4259C179.612 55.1079 179.953 54.9294 180.27 55.0279C180.59 55.1279 180.768 55.4674 180.669 55.7869C180.588 56.0454 180.547 56.3074 180.547 56.5649C180.547 56.9579 180.639 57.3299 180.821 57.6704C180.98 57.9649 180.869 58.3324 180.574 58.4904C180.483 58.5384 180.385 58.5614 180.288 58.5614ZM195.854 57.3624C195.673 57.3624 195.493 57.2809 195.373 57.1254C195.17 56.8604 195.219 56.4799 195.484 56.2764C196.103 55.8019 196.655 55.2709 197.127 54.6979C197.34 54.4384 197.722 54.4029 197.979 54.6159C198.238 54.8284 198.275 55.2099 198.062 55.4684C197.532 56.1124 196.914 56.7074 196.223 57.2374C196.113 57.3219 195.983 57.3624 195.854 57.3624ZM187.984 56.2194C187.832 56.2194 187.679 56.1619 187.561 56.0474C186.969 55.4694 186.368 54.9869 185.774 54.6119C185.492 54.4334 185.406 54.0594 185.585 53.7769C185.765 53.4929 186.138 53.4114 186.42 53.5874C187.086 54.0074 187.754 54.5439 188.407 55.1804C188.646 55.4139 188.651 55.7979 188.417 56.0369C188.299 56.1584 188.142 56.2194 187.984 56.2194ZM181.538 54.3319C181.338 54.3319 181.142 54.2324 181.026 54.0499C180.847 53.7679 180.931 53.3934 181.214 53.2149C182.003 52.7159 182.934 52.5059 183.93 52.6239C184.262 52.6634 184.5 52.9644 184.46 53.2969C184.422 53.6289 184.11 53.8659 183.788 53.8269C183.065 53.7434 182.423 53.8839 181.862 54.2379C181.762 54.3014 181.649 54.3319 181.538 54.3319ZM198.889 53.6504C198.802 53.6504 198.713 53.6314 198.629 53.5919C198.327 53.4484 198.198 53.0869 198.342 52.7844C198.659 52.1154 198.907 51.3889 199.077 50.6254C199.149 50.2999 199.472 50.0924 199.8 50.1664C200.126 50.2384 200.332 50.5629 200.26 50.8894C200.069 51.7414 199.792 52.5539 199.435 53.3049C199.333 53.5224 199.115 53.6504 198.889 53.6504ZM199.966 48.9629C199.959 48.9629 199.953 48.9629 199.946 48.9624C199.611 48.9514 199.35 48.6709 199.36 48.3364C199.366 48.1694 199.369 48.0024 199.369 47.8354C199.369 47.2484 199.333 46.6324 199.265 46.0039C199.228 45.6714 199.468 45.3724 199.801 45.3354C200.127 45.2964 200.432 45.5384 200.469 45.8714C200.543 46.5439 200.58 47.2044 200.58 47.8354C200.58 48.0164 200.578 48.1969 200.572 48.3779C200.56 48.7049 200.291 48.9629 199.966 48.9629ZM199.459 44.1549C199.182 44.1549 198.933 43.9644 198.869 43.6839C198.698 42.9399 198.485 42.1719 198.233 41.4024C198.129 41.0849 198.303 40.7424 198.621 40.6389C198.939 40.5344 199.28 40.7079 199.385 41.0264C199.648 41.8314 199.871 42.6349 200.049 43.4144C200.123 43.7409 199.919 44.0654 199.593 44.1394C199.549 44.1504 199.503 44.1549 199.459 44.1549ZM197.959 39.5489C197.723 39.5489 197.499 39.4099 197.401 39.1784C196.852 37.8749 196.394 37.0554 196.39 37.0474C196.226 36.7559 196.33 36.3869 196.621 36.2229C196.915 36.0604 197.281 36.1634 197.445 36.4544C197.465 36.4899 197.939 37.3364 198.517 38.7079C198.647 39.0169 198.502 39.3714 198.194 39.5019C198.118 39.5334 198.037 39.5489 197.959 39.5489Z" fill="#060606"/>
</svg>
