<svg width="286" height="224" viewBox="0 0 286 224" fill="none" xmlns="http://www.w3.org/2000/svg">
<g clip-path="url(#clip0_10_674)">
<mask id="path-1-inside-1_10_674" fill="white">
<path d="M0 0H286V224H0V0Z"/>
</mask>
<path d="M202.885 56.9329H202.879L199.642 56.9217L203.072 54.6013C203.454 54.3417 203.555 53.8234 203.295 53.4411C203.033 53.0574 202.51 52.9631 202.132 53.219L197.505 56.3494L197.608 50.9555C197.617 50.4939 197.25 50.1139 196.787 50.105H196.783C196.324 50.099 195.945 50.464 195.935 50.924L195.845 55.6844L193.015 52.6213C192.701 52.2847 192.174 52.2593 191.833 52.5734C191.494 52.8854 191.472 53.415 191.785 53.7538L194.696 56.9052L189.335 56.8865C188.872 56.885 188.496 57.2575 188.495 57.7191C188.494 58.1776 188.862 58.5509 189.321 58.5568H189.329L194.22 58.574L190.399 61.1592C190.017 61.4188 189.916 61.9371 190.176 62.3194C190.337 62.555 190.594 62.6822 190.858 62.6852C191.025 62.6874 191.192 62.6403 191.338 62.5415L195.772 59.5412L195.669 64.9756C195.659 65.4371 196.027 65.8171 196.489 65.8261H196.494C196.953 65.8321 197.332 65.467 197.342 65.007L197.44 59.8741L200.455 63.1392C200.618 63.3142 200.838 63.4048 201.06 63.4077C201.266 63.4107 201.474 63.3382 201.637 63.1871C201.976 62.8752 201.998 62.3456 201.685 62.0067L198.527 58.5875L202.873 58.6032C203.336 58.6047 203.711 58.2322 203.713 57.7707C203.715 57.3121 203.347 56.9389 202.885 56.9329Z" fill="#241726"/>
<path d="M166.608 146.052C166.608 146.052 158.069 165.242 151.35 163.348C144.629 161.455 141.04 146.407 141.04 146.407C141.04 146.407 75.4762 141.263 100.873 193.005C108.449 208.438 104.624 211.517 107.048 234.253C107.646 239.858 181.576 238.906 205.451 234.889C216.213 233.077 203.947 215.9 212.666 191.019C229.099 144.118 194.941 142.665 166.608 146.052Z" fill="#F2C100"/>
<path d="M185.19 180.358C181.053 179.47 180.751 186.609 177.962 189.374C175.639 191.677 165.022 181.335 153.685 179.947C151.003 172.612 147.987 166.933 148.139 166.239C148.515 164.526 157.673 163.671 160.033 159.443C164.086 155.983 166.45 150.438 166.608 146.052C166.608 146.052 162.162 147.61 161.435 143.709C161.054 141.666 160.863 135.824 160.767 130.724C162.211 130.087 163.661 129.382 165.108 128.587C187.116 116.487 184.399 104.823 170.461 87.6708C170.461 87.6708 165.004 74.596 146.143 83.783C127.281 92.97 125.413 96.9244 126.212 101.82C127.01 106.716 133.015 103.18 132.323 107.901C131.631 112.623 127.455 116.796 127.507 123.186C127.564 130.047 133.254 134.05 141.413 134.624C141.461 134.859 141.628 135.977 141.676 136.221C134.016 139.616 131.087 144.179 131.087 144.179C131.087 144.179 121.995 129.808 119.761 136.667C117.526 143.526 130.635 151.578 130.635 151.578C133.883 154.212 131.157 167.952 129.318 182.176C129.208 182.072 129.094 181.969 128.988 181.864C121.753 174.717 107.049 194.729 107.049 194.729C111.776 212.376 125.495 217.759 136.602 216.959C137.636 217.139 138.777 217.176 140.046 217.039C151.853 215.764 156.478 209.66 157.473 202.098C167.702 207.557 181.722 217.389 191.11 213.809C204.655 208.644 209.336 191.975 209.336 191.975C205.784 185.614 189.326 181.246 185.19 180.358Z" fill="#F2988B"/>
<path d="M154.874 209.988C154.773 209.988 154.671 209.959 154.581 209.899C154.338 209.739 154.272 209.41 154.433 209.168C154.503 209.062 161.394 198.357 154.151 181.203C154.038 180.933 154.164 180.624 154.433 180.511C154.702 180.399 155.012 180.524 155.126 180.792C162.603 198.5 155.615 209.301 155.314 209.753C155.212 209.906 155.045 209.988 154.874 209.988Z" fill="#241726"/>
<path d="M129.68 205.025C129.418 205.025 129.192 204.832 129.156 204.567C127.534 192.426 128.451 181.923 128.46 181.818C128.486 181.528 128.75 181.325 129.034 181.339C129.325 181.365 129.54 181.622 129.514 181.913C129.504 182.016 128.599 192.408 130.205 204.427C130.244 204.717 130.04 204.982 129.75 205.021C129.727 205.024 129.703 205.025 129.68 205.025Z" fill="#241726"/>
<path d="M181.25 212.285C181.047 212.285 180.853 212.169 180.765 211.972C180.647 211.704 180.767 211.393 181.035 211.274C181.773 210.948 188.319 208.113 190.528 209.405C191.003 209.681 191.283 210.123 191.337 210.681C191.365 210.971 191.152 211.229 190.861 211.258C190.569 211.279 190.312 211.073 190.284 210.782C190.262 210.562 190.176 210.422 189.995 210.316C188.677 209.548 184.063 211.088 181.463 212.24C181.394 212.271 181.321 212.285 181.25 212.285Z" fill="#241726"/>
<path d="M185.189 175.432C185.106 175.432 185.022 175.413 184.943 175.371C184.685 175.236 184.585 174.916 184.721 174.658C187.736 168.928 185.533 157.122 185.51 157.003C185.455 156.716 185.644 156.439 185.931 156.385C186.217 156.333 186.495 156.519 186.549 156.805C186.644 157.304 188.845 169.092 185.658 175.149C185.563 175.329 185.38 175.432 185.189 175.432Z" fill="#241726"/>
<path d="M126.371 177.06C126.2 177.06 126.034 176.978 125.932 176.828C121.311 170.003 123.471 156.025 123.566 155.434C123.612 155.147 123.88 154.954 124.171 154.995C124.46 155.041 124.657 155.311 124.611 155.599C124.589 155.741 122.422 169.757 126.809 176.236C126.973 176.478 126.909 176.806 126.667 176.969C126.576 177.031 126.472 177.06 126.371 177.06Z" fill="#241726"/>
<path d="M225.227 95.416C226.862 91.5055 227.278 86.4901 224.102 83.5526C220.82 80.5177 216.802 81.0224 213.986 82.8119C213.122 79.6388 210.78 76.6654 206.023 76.4644C200.517 76.2317 198.349 79.2268 197.595 82.4585C188.063 66.0031 170.775 70.2972 165.036 72.2957C165.036 72.2957 147.4 43.527 130.653 75.779C117.632 100.855 163.002 82.1175 163.002 82.1175C163.002 82.1175 158.996 111.454 168.357 112.229C182.164 113.371 175.2 125.514 165.65 125.838C160.125 126.025 167.497 135.887 184.66 131.303C192.009 129.34 194.727 125.444 198.697 120.082C201.715 122.997 205.446 124.383 209.083 123.174C212.236 122.126 213.731 120.116 214.285 117.995C219.545 120.391 231.259 115.553 231.055 102.411C230.984 97.8828 228.195 95.8644 225.227 95.416Z" fill="#E04F3E"/>
<path d="M154.757 169.034C154.361 169.034 153.963 168.992 153.561 168.907C153.276 168.845 153.094 168.564 153.156 168.279C153.217 167.994 153.495 167.817 153.784 167.873C161.701 169.599 169.323 149.94 169.399 149.74C169.504 149.468 169.81 149.332 170.082 149.436C170.355 149.539 170.492 149.844 170.388 150.118C170.08 150.924 163.054 169.034 154.757 169.034Z" fill="#241726"/>
<path d="M134.338 82.3663C134.046 82.3663 133.81 82.1302 133.81 81.8384C133.81 81.5465 134.046 81.3105 134.338 81.3105C144.448 81.3105 160.592 78.9548 160.755 78.9298C161.046 78.8957 161.313 79.0878 161.355 79.3754C161.398 79.6644 161.198 79.9326 160.909 79.9756C160.746 79.9993 144.527 82.3663 134.338 82.3663Z" fill="#241726"/>
<path d="M191.717 93.8517C191.584 93.8517 191.452 93.8432 191.32 93.829C188.969 93.5537 187.189 90.8958 184.241 86.4915C183.26 85.028 182.149 83.3686 180.852 81.5522C178.49 78.2444 176.266 76.6375 174.241 76.8149C171.791 77.014 170.385 79.8162 170.37 79.8441C170.242 80.1048 169.927 80.2136 169.663 80.0863C169.401 79.9572 169.292 79.6426 169.42 79.3806C169.487 79.2434 171.097 76.015 174.148 75.7624C176.578 75.5642 179.119 77.3035 181.714 80.9392C183.021 82.7688 184.137 84.4343 185.121 85.9045C187.806 89.9133 189.579 92.5613 191.444 92.7789C192.485 92.9047 193.73 92.2685 195.331 90.7851C195.545 90.586 195.88 90.5983 196.079 90.8121C196.278 91.0268 196.266 91.3608 196.051 91.559C194.357 93.1299 193 93.8517 191.717 93.8517Z" fill="#241726"/>
<path d="M187.605 107.16C178.844 107.16 167.603 98.2262 167.081 97.8076C166.854 97.625 166.818 97.2929 167.001 97.065C167.184 96.8379 167.518 96.802 167.745 96.9845C167.881 97.0938 181.536 107.949 189.969 105.831C192.345 105.236 194.107 103.626 195.204 101.046C195.319 100.778 195.632 100.652 195.898 100.767C196.167 100.88 196.293 101.191 196.178 101.459C194.944 104.359 192.942 106.175 190.226 106.856C189.389 107.065 188.51 107.16 187.605 107.16Z" fill="#241726"/>
<path d="M182.736 124.21C181.012 124.21 179.354 123.447 177.792 121.933C177.583 121.73 177.578 121.396 177.781 121.186C177.984 120.978 178.32 120.971 178.53 121.176C180.166 122.762 181.894 123.397 183.662 123.066C189.064 122.051 193.425 112.633 193.468 112.538C193.589 112.272 193.902 112.156 194.169 112.276C194.434 112.396 194.552 112.71 194.431 112.975C194.244 113.383 189.799 122.987 183.858 124.104C183.482 124.175 183.107 124.21 182.736 124.21Z" fill="#241726"/>
<path d="M209.587 113.592C207.266 113.592 205.227 112.852 203.841 111.65C201.87 109.941 201.392 107.487 202.595 105.247C202.733 104.991 203.053 104.89 203.311 105.031C203.569 105.168 203.666 105.489 203.528 105.746C202.557 107.554 202.933 109.463 204.535 110.852C207.044 113.029 212.025 113.448 216.692 110.04C218.907 108.423 219.659 106.55 218.867 104.625C218.658 104.116 218.352 103.639 217.983 103.209C215.846 104.467 213.637 105.083 212.335 104.566C211.836 104.368 211.019 103.822 211.156 102.385C211.285 101.029 212.075 100.145 213.325 99.9608C214.849 99.7361 216.739 100.556 218.153 101.867C219.334 101.077 220.479 100.073 221.366 98.9357C222.782 97.1184 224.035 94.3493 221.956 91.4819C219.503 88.1007 216.636 87.7204 214.667 88.0009C213.688 88.1381 212.762 88.4744 211.98 88.9063C212.215 89.5293 212.263 90.0543 212.269 90.3391C212.293 91.6006 211.714 92.7174 210.861 93.0566C210.237 93.303 209.574 93.1133 209.044 92.5315C208.612 92.0571 208.513 91.4095 208.766 90.709C209.027 89.9871 209.681 89.1991 210.604 88.5255C210.094 87.7507 209.163 86.9101 207.466 86.3122C205.695 85.6883 204.361 85.7101 203.501 86.3794C202.066 87.4962 202.294 90.112 202.296 90.139C202.323 90.4289 202.109 90.6867 201.819 90.7137C201.526 90.7468 201.271 90.5292 201.243 90.2393C201.23 90.1092 200.955 87.0265 202.846 85.5493C204.009 84.6425 205.684 84.5654 207.819 85.3161C209.782 86.0081 210.883 87.0128 211.498 87.9584C212.373 87.4787 213.401 87.1116 214.519 86.9546C216.368 86.6949 219.904 86.8557 222.812 90.8627C224.735 93.5135 224.518 96.6108 222.2 99.5843C221.302 100.737 220.128 101.789 218.881 102.639C219.284 103.131 219.616 103.667 219.846 104.224C220.415 105.609 220.844 108.317 217.317 110.893C214.712 112.796 211.997 113.592 209.587 113.592ZM213.827 100.981C213.707 100.981 213.59 100.989 213.479 101.006C212.708 101.119 212.292 101.604 212.208 102.487C212.135 103.249 212.445 103.474 212.724 103.584C213.641 103.945 215.401 103.472 217.213 102.447C216.143 101.543 214.835 100.981 213.827 100.981ZM211.066 89.5013C210.411 90.0056 209.943 90.5638 209.761 91.068C209.585 91.5557 209.767 91.7558 209.827 91.822C210.167 92.1943 210.396 92.1058 210.469 92.0746C210.847 91.9251 211.227 91.2425 211.211 90.3594C211.206 90.1778 211.179 89.8727 211.066 89.5013Z" fill="#241726"/>
<path d="M136.385 76.98C136.311 76.98 136.235 76.9644 136.163 76.9308C135.898 76.8093 135.783 76.4947 135.906 76.2303C138.813 69.9727 142.508 66.5031 146.886 65.9166C154.345 64.9109 160.957 72.6216 161.235 72.9494C161.423 73.1722 161.395 73.5052 161.172 73.693C160.948 73.8808 160.615 73.8529 160.426 73.6301C160.361 73.5549 153.906 66.0367 147.023 66.9643C143.028 67.5007 139.61 70.7669 136.865 76.674C136.776 76.867 136.585 76.98 136.385 76.98Z" fill="#241726"/>
<path d="M103.264 193.532C103.237 193.532 103.21 193.53 103.183 193.526C102.895 193.482 102.696 193.213 102.741 192.924C104.27 182.989 121.519 178.375 122.253 178.184C122.537 178.105 122.824 178.279 122.899 178.56C122.973 178.843 122.803 179.132 122.52 179.205C122.348 179.25 105.21 183.834 103.787 193.084C103.746 193.346 103.521 193.532 103.264 193.532Z" fill="#241726"/>
<path d="M208.141 184.656C207.971 184.656 207.804 184.575 207.701 184.423C204.014 178.953 189.157 178.586 189.007 178.583C188.715 178.577 188.483 178.336 188.488 178.044C188.495 177.752 188.761 177.497 189.028 177.527C189.662 177.54 204.588 177.914 208.58 183.833C208.742 184.075 208.678 184.403 208.436 184.566C208.345 184.627 208.243 184.656 208.141 184.656Z" fill="#241726"/>
<path d="M162.427 233.127C161.814 233.127 161.2 233.123 160.578 233.112C134.608 232.697 112.989 230.624 112.774 230.603C112.483 230.574 112.27 230.316 112.298 230.025C112.326 229.735 112.584 229.534 112.876 229.551C113.091 229.573 134.67 231.642 160.594 232.056C186.405 232.518 203.185 224.028 203.351 223.942C203.612 223.806 203.929 223.91 204.063 224.17C204.197 224.43 204.094 224.747 203.834 224.88C203.669 224.966 187.456 233.127 162.427 233.127Z" fill="#241726"/>
<path d="M209.9 158.596C209.831 158.596 209.76 158.583 209.693 158.554C209.424 158.439 209.298 158.13 209.413 157.862C210.362 155.634 208.669 154.671 208.597 154.631C208.341 154.49 208.248 154.168 208.389 153.914C208.531 153.659 208.853 153.564 209.108 153.707C210.013 154.204 211.443 155.799 210.387 158.275C210.301 158.475 210.105 158.596 209.9 158.596Z" fill="#FBFCFF"/>
<path d="M206.463 162.551C206.394 162.551 206.324 162.538 206.256 162.509C205.987 162.396 205.862 162.085 205.977 161.817C206.899 159.65 205.339 158.687 205.158 158.585C204.905 158.442 204.814 158.12 204.956 157.867C205.097 157.614 205.417 157.524 205.672 157.662C206.575 158.159 208.005 159.753 206.95 162.23C206.865 162.431 206.669 162.551 206.463 162.551Z" fill="#FBFCFF"/>
<path d="M211.732 165.671C211.663 165.671 211.592 165.658 211.525 165.629C211.256 165.515 211.13 165.205 211.245 164.937C212.194 162.709 210.501 161.746 210.429 161.706C210.173 161.566 210.08 161.244 210.221 160.989C210.362 160.735 210.685 160.639 210.94 160.782C211.845 161.279 213.275 162.874 212.219 165.35C212.133 165.551 211.937 165.671 211.732 165.671Z" fill="#FBFCFF"/>
<path d="M208.707 170.319C208.638 170.319 208.568 170.306 208.5 170.277C208.231 170.162 208.106 169.853 208.221 169.585C209.17 167.357 207.477 166.394 207.405 166.353C207.148 166.213 207.056 165.891 207.197 165.637C207.339 165.382 207.66 165.287 207.915 165.43C208.82 165.927 210.25 167.521 209.194 169.998C209.109 170.198 208.913 170.319 208.707 170.319Z" fill="#FBFCFF"/>
<path d="M203.589 167.167C203.52 167.167 203.45 167.153 203.382 167.125C203.113 167.01 202.988 166.701 203.102 166.432C204.052 164.205 202.359 163.241 202.287 163.201C202.03 163.061 201.937 162.739 202.079 162.485C202.22 162.23 202.542 162.133 202.798 162.277C203.702 162.775 205.132 164.369 204.076 166.845C203.991 167.046 203.795 167.167 203.589 167.167Z" fill="#FBFCFF"/>
<path d="M213.409 173.782C213.339 173.782 213.269 173.769 213.201 173.74C212.933 173.626 212.807 173.316 212.922 173.048C213.871 170.82 212.178 169.857 212.106 169.817C211.85 169.676 211.757 169.355 211.898 169.1C212.039 168.845 212.362 168.75 212.617 168.893C213.521 169.39 214.952 170.985 213.896 173.461C213.81 173.662 213.614 173.782 213.409 173.782Z" fill="#FBFCFF"/>
<path d="M209.043 177.301C208.929 177.301 208.815 177.265 208.718 177.189C208.488 177.01 208.447 176.678 208.627 176.448C210.289 174.325 209.028 173.009 209.014 172.996C208.809 172.789 208.811 172.454 209.018 172.249C209.226 172.044 209.561 172.046 209.767 172.253C209.786 172.273 211.69 174.25 209.461 177.098C209.356 177.231 209.201 177.301 209.043 177.301Z" fill="#FBFCFF"/>
<path d="M142.405 101.78C142.285 101.78 142.165 101.772 142.045 101.755C141.438 101.674 140.98 101.356 140.72 100.836C139.511 98.4291 143.199 91.6777 143.624 90.9152C143.765 90.6612 144.086 90.5685 144.344 90.7108C144.599 90.8523 144.691 91.1739 144.549 91.4289C143.05 94.119 140.943 98.9239 141.666 100.364C141.77 100.57 141.925 100.673 142.187 100.709C144.644 101.01 147.769 95.7613 148.765 93.6999C148.893 93.4378 149.209 93.3266 149.471 93.4534C149.735 93.5802 149.845 93.8947 149.719 94.1577C149.331 94.9605 145.935 101.779 142.405 101.78Z" fill="#241726"/>
<path d="M152.758 108.004C152.639 108.004 152.519 107.996 152.399 107.98C151.792 107.899 151.334 107.581 151.073 107.061C149.865 104.653 153.553 97.9008 153.977 97.1387C154.119 96.8847 154.441 96.791 154.697 96.9344C154.953 97.0758 155.045 97.3975 154.903 97.6524C153.404 100.342 151.296 105.147 152.02 106.587C152.124 106.794 152.279 106.898 152.541 106.934C154.993 107.218 158.124 101.986 159.119 99.9239C159.247 99.6618 159.563 99.5492 159.826 99.6774C160.089 99.8032 160.2 100.119 160.073 100.382C159.685 101.184 156.289 108.004 152.758 108.004Z" fill="#241726"/>
<path d="M148.97 120.735C148.97 120.735 150.305 113.457 144.161 112.786C138.017 112.115 133.599 122.806 139.478 124.222C145.357 125.637 148.97 120.735 148.97 120.735Z" fill="#D9607C"/>
<path d="M150.459 123.746C150.243 123.746 150.041 123.613 149.962 123.399C149.836 123.058 146.759 115.086 136.546 118.331C136.264 118.416 135.97 118.265 135.881 117.988C135.793 117.71 135.946 117.414 136.225 117.325C147.423 113.772 150.922 122.944 150.956 123.036C151.056 123.31 150.915 123.612 150.641 123.712C150.581 123.736 150.52 123.746 150.459 123.746Z" fill="#241726"/>
<path d="M148.139 166.767C147.931 166.767 147.734 166.645 147.65 166.441C147.539 166.171 147.667 165.863 147.937 165.752C159.481 160.994 160.455 158.654 160.339 157.868C160.175 156.771 157.53 156.165 156.275 156.044C156.043 156.021 155.853 155.85 155.807 155.622C155.761 155.394 155.87 155.163 156.075 155.052C156.101 155.039 158.675 153.632 159.252 151.599C159.481 150.791 159.364 150.005 158.896 149.199C157.529 146.844 152.74 147.908 152.691 147.918C152.429 147.98 152.159 147.829 152.072 147.574C151.985 147.317 152.106 147.036 152.352 146.923C153.281 146.498 155.651 145.042 155.46 143.427C155.312 142.178 151.04 142.081 148.2 142.411C147.922 142.444 147.668 142.255 147.619 141.981C147.568 141.707 147.74 141.441 148.01 141.374C152.461 140.265 159.666 137.727 160.05 135.64C160.079 135.479 160.169 134.99 159.19 134.31C153.668 130.479 138.733 138.042 138.583 138.12C138.322 138.251 138.003 138.149 137.871 137.891C137.738 137.631 137.84 137.312 138.1 137.179C138.737 136.855 153.754 129.251 159.795 133.444C160.816 134.152 161.252 134.955 161.091 135.831C160.682 138.057 155.943 140.025 152.318 141.22C154.348 141.345 156.338 141.847 156.51 143.304C156.672 144.678 155.755 145.818 154.791 146.617C156.549 146.56 158.788 146.906 159.811 148.67C160.422 149.724 160.576 150.807 160.268 151.891C159.85 153.362 158.661 154.51 157.743 155.212C159.159 155.519 161.161 156.216 161.384 157.713C161.604 159.185 160.491 161.721 148.341 166.729C148.275 166.755 148.207 166.767 148.139 166.767Z" fill="#241726"/>
<path d="M164.326 122.082C163.686 122.082 163.119 121.817 162.692 121.31C161.899 120.367 161.753 118.718 162.338 117.301C163.019 115.651 164.515 114.605 166.446 114.428C172.012 113.915 172.831 118.464 172.839 118.511C172.886 118.799 172.691 119.07 172.403 119.118C172.111 119.169 171.844 118.971 171.795 118.685C171.77 118.537 171.116 115.061 166.542 115.48C164.454 115.67 163.625 116.954 163.316 117.702C162.882 118.754 162.961 119.986 163.503 120.63C163.79 120.972 164.172 121.093 164.643 120.989C166.214 120.645 166.344 119.474 166.328 118.988C166.298 118.131 165.784 117.361 165.181 117.271C164.892 117.229 164.693 116.96 164.736 116.671C164.779 116.384 165.049 116.186 165.337 116.227C166.458 116.394 167.337 117.565 167.385 118.952C167.426 120.159 166.787 121.6 164.87 122.021C164.685 122.063 164.502 122.082 164.326 122.082Z" fill="#241726"/>
<path fill-rule="evenodd" clip-rule="evenodd" d="M79.9672 66.2821L80.7906 65.8659C85.2823 63.5958 91.9925 59.8267 96.081 53.5468C100.079 47.406 101.729 38.6059 95.584 25.8332C92.6695 19.775 85.588 14.8181 76.6189 11.953C67.6972 9.10312 57.1979 8.42431 47.8336 10.6539C38.4825 12.8803 30.3824 17.9688 25.9692 26.5631C21.5506 35.1676 20.6736 47.5854 26.4108 64.7825C28.3703 70.6562 31.7711 73.8858 35.7195 75.547C39.7368 77.2372 44.469 77.3632 49.1084 76.7011C53.732 76.0414 58.131 74.6183 61.3915 73.3482C63.0172 72.7149 64.3491 72.1239 65.2714 71.6928C65.7323 71.4774 66.0903 71.3022 66.3309 71.182C66.4511 71.122 66.542 71.0757 66.6016 71.045L66.6674 71.011L66.6823 71.0032L66.685 71.0018L67.6656 70.4839L68.448 71.2694L68.4542 71.2755L68.4767 71.298C68.4892 71.3103 68.5056 71.3267 68.5259 71.3467C68.5389 71.3595 68.5535 71.3739 68.5695 71.3897C68.652 71.4709 68.7748 71.5908 68.9326 71.7426C69.2485 72.0463 69.7042 72.4768 70.2588 72.9798C71.3723 73.9895 72.8664 75.2743 74.4191 76.4088C76.0028 77.5658 77.5243 78.474 78.7099 78.8437C79.3017 79.0282 79.6622 79.0305 79.8467 78.9886C79.89 78.9787 79.9291 78.9672 79.9672 78.9434V66.2821ZM81.4672 79.4189C79.0883 84.076 67.3855 72.3281 67.3855 72.3281C67.3855 72.3281 33.3442 90.3063 24.9879 65.2572C1.72904 -4.46077 84.2595 -1.1668 96.9357 25.1829C109.612 51.5327 90.4886 62.6452 81.4672 67.2046V79.4189Z" fill="black"/>
<path d="M67.9223 64.6674C67.3642 66.544 65.3872 67.6141 63.5069 67.0571C61.6266 66.5001 60.5545 64.527 61.1125 62.6504C61.6706 60.7734 63.6476 59.7037 65.5279 60.2607C67.4082 60.8177 68.4804 62.7908 67.9223 64.6674Z" fill="#B1739A"/>
<path d="M57.2656 59.6895C56.6041 59.6895 55.9379 59.479 55.3738 59.0443C51.2585 55.8702 49.2926 53.2163 49.0013 50.4397C48.6628 47.2146 50.6786 44.8463 52.4575 42.7572C54.3445 40.5396 56.2966 38.2461 56.5803 34.5C56.945 29.6973 52.941 26.0868 49.0671 24.7656C45.4721 23.5389 40.6338 23.745 37.8253 27.9947C35.0765 32.1546 33.9786 35.78 34.6501 38.4771C35.2426 40.8592 37.0678 41.8798 37.1451 41.9222C38.6731 42.69 39.266 44.5373 38.4967 46.0623C37.7274 47.5864 35.8439 48.1901 34.3151 47.4215C33.8792 47.2023 30.0183 45.139 28.6901 40.1717C27.48 35.6444 28.8134 30.4026 32.6536 24.5908C36.5704 18.6634 43.7991 16.4348 51.0706 18.9142C59.7603 21.8787 63.2022 29.1118 62.7579 34.9667C62.3215 40.7164 59.3489 44.209 57.1788 46.7585C56.2046 47.9029 55.1004 49.2004 55.1626 49.7945C55.1967 50.1197 55.5859 51.3938 59.1618 54.151C60.5153 55.1945 60.7647 57.1364 59.7187 58.4869C59.1083 59.2761 58.1919 59.6895 57.2656 59.6895Z" fill="#B1739A"/>
<path d="M79.1022 59.6057C78.1759 61.3316 76.0233 61.9811 74.2944 61.0567C72.5651 60.1322 71.9143 57.9838 72.8406 56.2583C73.7669 54.5324 75.9195 53.8829 77.6483 54.8073C79.3772 55.7318 80.0281 57.8802 79.1022 59.6057Z" fill="#53AEA1"/>
<path d="M73.745 52.6423C72.6011 52.407 71.6404 51.5331 71.3538 50.3239C70.2884 45.8222 71.445 42.8633 72.6031 41.1726C74.3118 38.6789 77.1509 37.1385 81.0407 36.5946C83.0641 36.3113 84.4057 35.5166 84.6305 34.4672C84.9555 32.9462 83.3748 30.1024 79.1358 27.4524C78.2159 26.8776 76.5163 25.9872 75.4711 26.484C74.0546 27.1589 73.0664 30.168 72.8449 31.9905C72.6392 33.6812 71.1013 34.892 69.4065 34.693C67.7034 34.496 66.4969 32.9683 66.6915 31.2761C66.7842 30.4707 67.741 23.3352 72.7803 20.9151C74.7319 19.9772 77.9919 19.442 82.4248 22.2126C88.5889 26.0659 91.6784 31.1293 90.6891 35.7571C89.898 39.4562 86.6126 42.0583 81.9 42.7173C79.808 43.0092 78.401 43.6639 77.7165 44.6628C77.263 45.3242 76.837 46.5971 77.3827 48.9021C77.7759 50.564 76.7454 52.2286 75.0803 52.6214C74.6269 52.7286 74.1731 52.7305 73.745 52.6423Z" fill="#53AEA1"/>
<path d="M96.5914 45.9443C96.5914 45.9443 95.468 37.4327 103.677 40.1866C111.886 42.9405 109.211 50.7339 106.082 48.0671C102.952 45.4002 108.824 36.3552 115.106 40.383C121.387 44.4108 119.982 52.2257 115.526 52.8023C111.07 53.3789 118.224 43.7029 123.837 49.6789C129.45 55.6544 117.195 66.5494 112.183 62.544C107.171 58.5386 111.093 52.073 112.295 56.0132C113.498 59.9535 110.255 63.8174 101.366 63.6647C92.4767 63.512 96.5231 49.8631 99.6302 53.836C102.737 57.8088 97.5792 62.2931 91.3084 57.6123C85.0386 52.9316 92.1921 43.2555 96.5914 45.9443Z" fill="#FBFCFF"/>
<path d="M101.86 64.2368C101.694 64.2368 101.527 64.2358 101.357 64.2322C98.4378 64.1824 96.3873 62.6896 95.6672 60.1174C94.2465 59.9408 92.6402 59.3138 90.9686 58.0664C87.3556 55.37 87.7809 51.1559 89.8044 48.1765C91.2781 46.0069 93.7422 44.4144 95.9691 45.0516C95.9569 43.7268 96.1869 41.3663 97.8157 40.0278C99.1961 38.8949 101.229 38.7636 103.859 39.6481C105.094 40.0619 106.068 40.5724 106.836 41.1241C108.918 38.9422 112.171 37.8281 115.414 39.9046C118.593 41.943 119.79 44.7742 119.907 47.1622C121.47 47.2156 122.979 47.9333 124.252 49.2896C126.798 51.9997 126.238 56.1298 122.825 59.812C119.737 63.1436 114.835 65.387 111.827 62.9868C111.426 62.6652 111.074 62.3257 110.769 61.9725C108.812 63.4469 105.735 64.2368 101.86 64.2368ZM96.8738 60.1612C97.3802 61.6025 98.5857 63.0484 101.377 63.0963C105.239 63.1792 108.278 62.4484 110.099 61.061C109.003 59.2888 108.914 57.3447 109.442 55.9064C109.832 54.8442 110.522 54.1994 111.272 54.2182C111.676 54.2294 112.416 54.4569 112.841 55.8474C113.376 57.5997 113.091 59.3306 112.039 60.7225C111.91 60.8946 111.769 61.06 111.619 61.2188C111.879 61.5196 112.184 61.8158 112.54 62.0998C114.917 64.0032 119.212 62.0377 121.991 59.0415C124.358 56.4871 125.978 52.7881 123.423 50.0673C122.204 48.7689 120.974 48.317 119.884 48.2849C119.855 48.5934 119.808 48.8885 119.744 49.1685C119.221 51.4943 117.633 53.1036 115.602 53.3668C114.171 53.5541 113.761 52.812 113.646 52.4858C113.229 51.2984 114.519 49.3018 116.463 48.1256C117.221 47.6676 117.998 47.3734 118.773 47.2411C118.679 45.1626 117.624 42.6723 114.8 40.8625C111.99 39.0603 109.373 40.1469 107.716 41.8514C109.354 43.4148 109.643 45.0949 109.69 45.7478C109.795 47.2116 109.228 48.4778 108.244 48.974C107.454 49.3726 106.532 49.1995 105.713 48.5002C103.945 46.9942 104.569 44.1055 106.105 42.0015C105.435 41.5312 104.582 41.0905 103.497 40.7266C101.264 39.9774 99.5989 40.0395 98.5428 40.9052C96.7295 42.3913 97.1522 45.8379 97.1568 45.8725C97.1854 46.0888 97.0864 46.3031 96.9023 46.4217C96.7177 46.5403 96.4821 46.5438 96.295 46.4303C94.473 45.3127 92.1257 46.7866 90.7483 48.8163C89.0277 51.3488 88.6397 54.9109 91.6514 57.1579C93.0099 58.1722 94.3006 58.727 95.4424 58.9412C95.1517 56.3156 96.1491 53.4304 97.6922 52.7123C98.0859 52.527 99.1048 52.2384 100.081 53.4869C101.492 55.2911 101.491 57.3864 100.078 58.8267C99.3424 59.5739 98.2287 60.0843 96.8738 60.1612ZM111.237 55.3547C111.116 55.3547 110.771 55.5888 110.51 56.2978C110.196 57.1543 110.071 58.7081 110.946 60.266C111.01 60.1917 111.071 60.1149 111.129 60.0385C111.968 58.9285 112.183 57.5935 111.751 56.1777C111.57 55.5827 111.341 55.3567 111.24 55.3542C111.239 55.3547 111.238 55.3547 111.237 55.3547ZM98.4245 53.6777C98.3093 53.6777 98.2241 53.7179 98.1726 53.7408C97.2522 54.1694 96.2328 56.5772 96.6015 59.042C97.7468 59.0252 98.6713 58.6338 99.2634 58.0297C100.268 57.0067 100.237 55.5328 99.1828 54.1846C98.8626 53.7754 98.6061 53.6777 98.4245 53.6777ZM118.724 48.4035C118.059 48.5577 117.486 48.8341 117.052 49.0972C115.345 50.1304 114.561 51.6562 114.719 52.1092C114.775 52.269 115.15 52.2776 115.454 52.2389C116.999 52.0389 118.216 50.7676 118.632 48.9186C118.669 48.7527 118.701 48.5811 118.724 48.4035ZM106.984 42.7257C105.616 44.6302 105.383 46.724 106.452 47.635C106.778 47.9124 107.264 48.1943 107.73 47.9582C108.285 47.6773 108.624 46.8019 108.554 45.8288C108.516 45.3096 108.285 43.9976 106.984 42.7257Z" fill="#241726"/>
<path d="M32.7969 80.8206C32.7969 80.8206 31.3155 69.5971 42.1402 73.2284C52.9648 76.8598 49.438 87.1364 45.3106 83.6198C41.184 80.1032 48.9269 68.1764 57.2098 73.4875C65.4934 78.7979 63.6402 89.1034 57.7653 89.8637C51.8903 90.6241 61.3217 77.8651 68.7237 85.7452C76.1251 93.6246 59.9654 107.991 53.3568 102.709C46.7483 97.4277 51.9199 88.902 53.5055 94.0977C55.091 99.2934 50.8158 104.388 39.0941 104.187C27.3731 103.986 32.7081 85.9881 36.8052 91.2267C40.9022 96.4654 34.1007 102.378 25.8319 96.2063C17.5631 90.0348 26.9952 77.2752 32.7969 80.8206Z" fill="#FBFCFF"/>
<path d="M39.739 104.942C39.5211 104.942 39.3019 104.941 39.08 104.936C35.2311 104.87 32.5273 102.902 31.5785 99.5102C29.7044 99.2773 27.587 98.4525 25.3821 96.8056C20.618 93.2501 21.1788 87.6934 23.8476 83.7648C25.7903 80.9038 29.0414 78.804 31.9765 79.6442C31.9604 77.8973 32.2637 74.7834 34.4114 73.0197C36.231 71.5212 38.9132 71.3514 42.3796 72.5177C44.0089 73.0633 45.2932 73.7378 46.3059 74.4639C49.0507 71.5883 53.3428 70.1179 57.616 72.856C61.8086 75.5458 63.3874 79.2784 63.5414 82.4272C65.6024 82.4977 67.5927 83.444 69.2711 85.2325C72.6272 88.8061 71.8888 94.2507 67.391 99.1062C63.3182 103.499 56.8528 106.459 52.8875 103.294C52.3577 102.87 51.8944 102.422 51.4923 101.956C48.9088 103.901 44.8487 104.942 39.739 104.942ZM33.1681 99.5679C33.8358 101.469 35.4254 103.376 39.1062 103.438C44.2059 103.53 48.2055 102.582 50.606 100.753C49.1616 98.4176 49.0433 95.854 49.7399 93.9575C50.2543 92.5555 51.1527 91.6764 52.1532 91.7314C52.6858 91.7462 53.6622 92.0448 54.2223 93.8796C54.927 96.1889 54.5511 98.4713 53.1646 100.307C52.9938 100.534 52.8089 100.752 52.6105 100.962C52.9528 101.359 53.3555 101.75 53.8249 102.124C56.9617 104.631 62.6242 102.041 66.2876 98.0894C69.409 94.7205 71.5439 89.8436 68.1751 86.2572C66.5673 84.5452 64.9461 83.9493 63.5078 83.907C63.4694 84.3137 63.4076 84.703 63.3235 85.0734C62.6329 88.139 60.539 90.2597 57.8614 90.606C55.9827 90.8442 55.4333 89.8731 55.2827 89.4443C54.7333 87.88 56.4346 85.2479 58.9972 83.6963C59.9964 83.0923 61.0218 82.7044 62.0439 82.5299C61.9195 79.7878 60.5283 76.5054 56.8037 74.1177C53.1014 71.7399 49.6471 73.1768 47.4651 75.4229C49.6249 77.4846 50.0049 79.6999 50.0667 80.5623C50.2059 82.491 49.4575 84.1607 48.1597 84.8144C47.1215 85.3412 45.9024 85.1103 44.8225 84.1896C42.4912 82.2038 43.3149 78.3946 45.3403 75.6189C44.456 75.0002 43.3311 74.4176 41.9008 73.9378C38.9583 72.9499 36.7608 73.0305 35.3682 74.1734C32.9764 76.1343 33.5345 80.6777 33.5406 80.7247C33.5783 81.0099 33.4478 81.2924 33.2051 81.4488C32.9616 81.6051 32.651 81.6112 32.4042 81.4602C30.0023 79.9885 26.9065 81.9313 25.0903 84.605C22.8215 87.9444 22.3098 92.6414 26.2811 95.6064C28.0725 96.9439 29.7744 97.6754 31.2799 97.9579C30.8973 94.4957 32.2126 90.6912 34.2466 89.7443C34.7657 89.5013 36.1086 89.1195 37.3963 90.7657C39.2569 93.1448 39.2555 95.909 37.3916 97.8069C36.4226 98.7934 34.9547 99.4666 33.1681 99.5679ZM52.1082 93.2286C51.9482 93.2286 51.4929 93.5387 51.1493 94.4742C50.7344 95.6023 50.5697 97.6526 51.7242 99.7055C51.8083 99.6075 51.889 99.5061 51.9663 99.4055C53.0725 97.9418 53.3555 96.1815 52.786 94.3158C52.5473 93.5313 52.2454 93.2333 52.1116 93.2286C52.1102 93.2286 52.1082 93.2286 52.1082 93.2286ZM35.2129 91.0187C35.0609 91.0187 34.9486 91.0717 34.8814 91.1019C33.6677 91.667 32.3235 94.842 32.8097 98.0921C34.3193 98.07 35.5384 97.5539 36.319 96.7573C37.6444 95.4084 37.6034 93.4649 36.2128 91.6871C35.7905 91.1476 35.4523 91.0187 35.2129 91.0187ZM61.98 84.0641C61.1032 84.2661 60.3474 84.6318 59.7745 84.9788C57.5239 86.3411 56.4897 88.3517 56.6995 88.9504C56.7728 89.1598 57.2704 89.1712 57.6678 89.1202C59.7046 88.8571 61.3103 87.1813 61.859 84.7446C61.9081 84.5244 61.9491 84.2983 61.98 84.0641ZM46.4995 76.5759C44.6968 79.0885 44.3888 81.8494 45.7982 83.0507C46.2279 83.4165 46.868 83.7882 47.4833 83.4769C48.2149 83.1084 48.662 81.9521 48.5692 80.669C48.5195 79.9844 48.2155 78.2543 46.4995 76.5759Z" fill="#241726"/>
<path d="M86.988 121.083H86.9845L84.8156 121.075L87.1135 119.52C87.3696 119.346 87.4369 118.999 87.2627 118.743C87.0874 118.486 86.7369 118.422 86.4838 118.594L83.3838 120.692L83.4527 117.077C83.4587 116.768 83.2126 116.513 82.9028 116.507H82.8998C82.5919 116.503 82.3383 116.748 82.3318 117.056L82.271 120.246L80.3753 118.193C80.1649 117.968 79.8114 117.951 79.5829 118.161C79.3554 118.37 79.3413 118.726 79.5507 118.952L81.5012 121.064L77.9091 121.051C77.5993 121.051 77.3472 121.3 77.3467 121.609C77.3462 121.916 77.5923 122.166 77.9001 122.17H77.9056L81.1823 122.182L78.6222 123.914C78.3661 124.088 78.2988 124.435 78.4731 124.691C78.5805 124.849 78.7533 124.934 78.9295 124.936C79.041 124.938 79.1535 124.907 79.2514 124.84L82.2223 122.83L82.153 126.471C82.147 126.781 82.3931 127.035 82.7029 127.041H82.7064C83.0137 127.045 83.2678 126.801 83.2744 126.492L83.3397 123.053L85.3604 125.241C85.4694 125.358 85.6165 125.419 85.7652 125.421C85.9033 125.422 86.0429 125.374 86.1523 125.273C86.3793 125.064 86.3939 124.709 86.1845 124.482L84.0683 122.192L86.9804 122.202C87.2903 122.203 87.5424 121.953 87.5429 121.644C87.5444 121.337 87.2978 121.087 86.988 121.083Z" fill="#241726"/>
</g>
<path d="M286 223H0V225H286V223Z" fill="black" mask="url(#path-1-inside-1_10_674)"/>
<defs>
<clipPath id="clip0_10_674">
<path d="M0 0H286V224H0V0Z" fill="white"/>
</clipPath>
</defs>
</svg>
